<svg class="animated" id="freepik_stories-mobile-encryption" xmlns="http://www.w3.org/2000/svg" viewBox="0 0 500 500" version="1.1" xmlns:xlink="http://www.w3.org/1999/xlink" xmlns:svgjs="http://svgjs.com/svgjs"><style>svg#freepik_stories-mobile-encryption:not(.animated) .animable {opacity: 0;}svg#freepik_stories-mobile-encryption.animated #freepik--Device--inject-2 {animation: 1.5s Infinite  linear wind;animation-delay: 0s;}svg#freepik_stories-mobile-encryption.animated #freepik--Fingerprint--inject-2 {animation: 1.5s Infinite  linear floating;animation-delay: 0s;}            @keyframes wind {                0% {                    transform: rotate( 0deg );                }                25% {                    transform: rotate( 1deg );                }                75% {                    transform: rotate( -1deg );                }            }                    @keyframes floating {                0% {                    opacity: 1;                    transform: translateY(0px);                }                50% {                    transform: translateY(-10px);                }                100% {                    opacity: 1;                    transform: translateY(0px);                }            }        </style><g id="freepik--background-complete--inject-2" class="animable" style="transform-origin: 250px 228.23px;"><rect y="382.4" width="500" height="0.25" style="fill: rgb(235, 235, 235); transform-origin: 250px 382.525px;" id="eluahznlv9nf" class="animable"></rect><rect x="416.78" y="398.49" width="33.12" height="0.25" style="fill: rgb(235, 235, 235); transform-origin: 433.34px 398.615px;" id="elk3wfu7x6yeg" class="animable"></rect><rect x="322.53" y="401.21" width="8.69" height="0.25" style="fill: rgb(235, 235, 235); transform-origin: 326.875px 401.335px;" id="elo3q8ruzdsmf" class="animable"></rect><rect x="396.59" y="389.21" width="19.19" height="0.25" style="fill: rgb(235, 235, 235); transform-origin: 406.185px 389.335px;" id="el2tcf6eaeitp" class="animable"></rect><rect x="52.46" y="390.89" width="43.19" height="0.25" style="fill: rgb(235, 235, 235); transform-origin: 74.055px 391.015px;" id="el0jstoux5u99q" class="animable"></rect><rect x="104.56" y="390.89" width="6.33" height="0.25" style="fill: rgb(235, 235, 235); transform-origin: 107.725px 391.015px;" id="elyt2ktq3lmh" class="animable"></rect><rect x="131.47" y="395.11" width="93.68" height="0.25" style="fill: rgb(235, 235, 235); transform-origin: 178.31px 395.235px;" id="elwgefwe1fuqi" class="animable"></rect><path d="M237,337.8H43.91a5.71,5.71,0,0,1-5.7-5.71V60.66A5.71,5.71,0,0,1,43.91,55H237a5.71,5.71,0,0,1,5.71,5.71V332.09A5.71,5.71,0,0,1,237,337.8ZM43.91,55.2a5.46,5.46,0,0,0-5.45,5.46V332.09a5.46,5.46,0,0,0,5.45,5.46H237a5.47,5.47,0,0,0,5.46-5.46V60.66A5.47,5.47,0,0,0,237,55.2Z" style="fill: rgb(235, 235, 235); transform-origin: 140.46px 196.4px;" id="elm1wz001ui6" class="animable"></path><path d="M453.31,337.8H260.21a5.72,5.72,0,0,1-5.71-5.71V60.66A5.72,5.72,0,0,1,260.21,55h193.1A5.71,5.71,0,0,1,459,60.66V332.09A5.71,5.71,0,0,1,453.31,337.8ZM260.21,55.2a5.47,5.47,0,0,0-5.46,5.46V332.09a5.47,5.47,0,0,0,5.46,5.46h193.1a5.47,5.47,0,0,0,5.46-5.46V60.66a5.47,5.47,0,0,0-5.46-5.46Z" style="fill: rgb(235, 235, 235); transform-origin: 356.75px 196.4px;" id="el4ubivllsrjt" class="animable"></path><rect x="73.14" y="90.06" width="143.13" height="147.9" style="fill: rgb(235, 235, 235); transform-origin: 144.705px 164.01px;" id="el4ee11rtov2c" class="animable"></rect><rect x="78.14" y="90.06" width="143.13" height="147.9" style="fill: rgb(240, 240, 240); transform-origin: 149.705px 164.01px;" id="el1i1vuptjr6" class="animable"></rect><rect x="81.75" y="93.57" width="135.73" height="140.95" style="fill: rgb(224, 224, 224); transform-origin: 149.615px 164.045px;" id="el6ploehfi4fi" class="animable"></rect><rect x="81.75" y="93.56" width="132.34" height="140.95" style="fill: rgb(245, 245, 245); transform-origin: 147.92px 164.035px;" id="elglnwac1qtxu" class="animable"></rect><rect x="146.6" y="93.57" width="2.69" height="140.95" style="fill: rgb(235, 235, 235); transform-origin: 147.945px 164.045px;" id="elo6rft5hx6ik" class="animable"></rect><polygon points="131.13 93.56 93.41 234.51 89.79 234.51 127.51 93.56 131.13 93.56" style="fill: rgb(255, 255, 255); transform-origin: 110.46px 164.035px;" id="elyw9a4u74dui" class="animable"></polygon><rect x="148.14" y="91.39" width="2.3" height="145.83" style="fill: rgb(240, 240, 240); transform-origin: 149.29px 164.305px;" id="el2wo0n8f8eh9" class="animable"></rect><polygon points="117.44 93.56 81.75 226.95 81.75 153.63 97.82 93.56 117.44 93.56" style="fill: rgb(255, 255, 255); transform-origin: 99.595px 160.255px;" id="elc4vfjaabrvi" class="animable"></polygon><polygon points="214.09 106.35 214.09 119.88 183.41 234.51 179.79 234.51 214.09 106.35" style="fill: rgb(255, 255, 255); transform-origin: 196.94px 170.43px;" id="el7rt0aidhtsx" class="animable"></polygon><polygon points="214.09 133.67 214.09 206.99 206.73 234.51 187.11 234.51 214.09 133.67" style="fill: rgb(255, 255, 255); transform-origin: 200.6px 184.09px;" id="eloq412aandy" class="animable"></polygon><path d="M323.73,283.11H443.87a8.24,8.24,0,0,1-7.88,8.23c-12.91.58-32.77,2.62-39.07,9.77-11.74,13.32-10.61,60.09,3.46,70.93,4.41,3.39,17.26,10.14,17.26,10.14H350s12-6.88,16.19-10.14c14-10.93,14.39-57.68,2.59-70.93-6.05-6.8-24.67-9-37.16-9.69A8.32,8.32,0,0,1,323.73,283.11Z" style="fill: rgb(245, 245, 245); transform-origin: 383.8px 332.645px;" id="elu0xlhodun3l" class="animable"></path><path d="M429,291.78c-12.21,1-26.83,3.39-32.07,9.33a23.59,23.59,0,0,0-4,6.88H372.77a23.76,23.76,0,0,0-4-6.88c-5.26-5.91-20-8.34-32-9.33Z" style="fill: rgb(230, 230, 230); transform-origin: 382.885px 299.885px;" id="elpyoz7y7r0vc" class="animable"></path><polygon points="374.9 283.17 376.54 264.49 352.86 264.49 351.22 283.17 374.9 283.17" style="fill: rgb(235, 235, 235); transform-origin: 363.88px 273.83px;" id="elri04upjoar9" class="animable"></polygon><polygon points="374.9 283.17 376.54 264.49 377.81 264.49 376.18 283.17 374.9 283.17" style="fill: rgb(224, 224, 224); transform-origin: 376.355px 273.83px;" id="el34bmvd1eji4" class="animable"></polygon><polygon points="372.66 281.26 373.96 266.4 355.1 266.4 353.8 281.26 372.66 281.26" style="fill: rgb(240, 240, 240); transform-origin: 363.88px 273.83px;" id="elpxkbi4f34vk" class="animable"></polygon><polygon points="371.21 280.04 372.3 267.62 356.55 267.62 355.46 280.04 371.21 280.04" style="fill: rgb(250, 250, 250); transform-origin: 363.88px 273.83px;" id="elzus1mqaxwrt" class="animable"></polygon><polygon points="382.59 283.11 406.38 283.11 403.74 252.94 379.95 252.94 382.59 283.11" style="fill: rgb(230, 230, 230); transform-origin: 393.165px 268.025px;" id="elaeiw2cuxnc8" class="animable"></polygon><polygon points="382.59 283.11 381.45 283.11 378.81 252.94 379.95 252.94 382.59 283.11" style="fill: rgb(224, 224, 224); transform-origin: 380.7px 268.025px;" id="ely0s0jqsptho" class="animable"></polygon><polygon points="384.74 280.03 403.68 280.03 401.58 256.01 382.64 256.01 384.74 280.03" style="fill: rgb(240, 240, 240); transform-origin: 393.16px 268.02px;" id="elh3jlicsgpl9" class="animable"></polygon><polygon points="386.13 278.06 401.95 278.06 400.19 257.99 384.37 257.99 386.13 278.06" style="fill: rgb(250, 250, 250); transform-origin: 393.16px 268.025px;" id="eld41n638bh3" class="animable"></polygon><path d="M394.12,267h0a2.76,2.76,0,0,1-3.89,0h0a2.74,2.74,0,0,1,0-3.89h0a2.74,2.74,0,0,1,3.89,0h0A2.76,2.76,0,0,1,394.12,267Z" style="fill: rgb(235, 235, 235); transform-origin: 392.171px 265.051px;" id="el65gw510l9gl" class="animable"></path><path d="M393,270.39h0a2,2,0,0,1,2.85,0h0a2,2,0,0,1-1.42,3.44h0A2,2,0,0,1,393,270.39Z" style="fill: rgb(240, 240, 240); transform-origin: 394.425px 271.812px;" id="elfcd917nij7w" class="animable"></path><path d="M191.34,376h23.17L202.32,276.8a8.83,8.83,0,0,0-8.53-7.6H92.69L107.51,376Z" style="fill: rgb(245, 245, 245); transform-origin: 153.6px 322.6px;" id="elbcc23b8ucvf" class="animable"></path><path d="M117.85,376H94.68L82.5,276.8a6.58,6.58,0,0,1,6.67-7.6h8a8.85,8.85,0,0,1,8.54,7.6Z" style="fill: rgb(240, 240, 240); transform-origin: 100.135px 322.599px;" id="elhfrggwzyrah" class="animable"></path><path d="M126.39,375.89l-4.2-48a4.58,4.58,0,0,0-4-4.14l-1.73-.22a6.14,6.14,0,0,1-5.33-5.55l-.77-8.75a6.13,6.13,0,0,1,6.11-6.67H77.77a6.13,6.13,0,0,0-6.11,6.67l.76,8.75a6.16,6.16,0,0,0,5.34,5.55l1.73.22a4.56,4.56,0,0,1,4,4.14l4.2,48a6.78,6.78,0,0,0,6.75,6.18h38.72A6.76,6.76,0,0,1,126.39,375.89Z" style="fill: rgb(230, 230, 230); transform-origin: 102.398px 342.315px;" id="el2xktdcj3k5p" class="animable"></path><path d="M233,315.9a14.59,14.59,0,0,1,14.53-13.32H213.77a14.58,14.58,0,0,0-14.53,13.32l-3.33,38h33.71Z" style="fill: rgb(230, 230, 230); transform-origin: 221.72px 328.24px;" id="eltctqxq85i6" class="animable"></path><path d="M262.46,302.58h-15A14.59,14.59,0,0,0,233,315.9l-3.33,38H149.33l-3.33-38a14.59,14.59,0,0,0-14.53-13.32h-15a6.13,6.13,0,0,0-6.11,6.67l.77,8.75a6.14,6.14,0,0,0,5.33,5.55l1.73.22a4.58,4.58,0,0,1,4,4.14l4.2,48a6.76,6.76,0,0,0,6.74,6.18H245.82a6.76,6.76,0,0,0,6.74-6.18l4.2-48a4.58,4.58,0,0,1,4-4.14l1.73-.22A6.14,6.14,0,0,0,267.8,318l.77-8.75A6.13,6.13,0,0,0,262.46,302.58Z" style="fill: rgb(240, 240, 240); transform-origin: 189.465px 342.335px;" id="el2ay0t4o3dtl" class="animable"></path><g id="el6j20dh6e0bu"><rect x="381.29" y="106.59" width="31" height="43.87" style="fill: rgb(224, 224, 224); transform-origin: 396.79px 128.525px; transform: rotate(90deg);" class="animable"></rect></g><g id="el06feufwrd55x"><rect x="383.32" y="108.66" width="26.96" height="39.75" style="fill: rgb(235, 235, 235); transform-origin: 396.8px 128.535px; transform: rotate(90deg);" class="animable"></rect></g><g id="el5dec3p7o0zo"><rect x="366.08" y="145.54" width="31.01" height="43.87" style="fill: rgb(224, 224, 224); transform-origin: 381.585px 167.475px; transform: rotate(90deg);" class="animable"></rect></g><g id="elgux7thjsi6h"><rect x="368.1" y="147.61" width="26.96" height="39.75" style="fill: rgb(235, 235, 235); transform-origin: 381.58px 167.485px; transform: rotate(90deg);" class="animable"></rect></g><g id="elziuhv1uhmbd"><rect x="338.62" y="104.53" width="27.92" height="39.5" style="fill: rgb(224, 224, 224); transform-origin: 352.58px 124.28px; transform: rotate(180deg);" class="animable"></rect></g><g id="el4o1gd1s191d"><rect x="340.44" y="106.39" width="24.28" height="35.79" style="fill: rgb(235, 235, 235); transform-origin: 352.58px 124.285px; transform: rotate(180deg);" class="animable"></rect></g><g id="elj6if7h30nk8"><rect x="322.74" y="151.98" width="31.01" height="43.87" style="fill: rgb(224, 224, 224); transform-origin: 338.245px 173.915px; transform: rotate(180deg);" class="animable"></rect></g><g id="elz2gpfx5j6c"><rect x="324.76" y="154.04" width="26.96" height="39.75" style="fill: rgb(235, 235, 235); transform-origin: 338.24px 173.915px; transform: rotate(180deg);" class="animable"></rect></g><g id="elle7ufja93td"><rect x="299.83" y="114.72" width="24.28" height="34.35" style="fill: rgb(224, 224, 224); transform-origin: 311.97px 131.895px; transform: rotate(-90deg);" class="animable"></rect></g><g id="elvehs0ucwndr"><rect x="301.41" y="116.33" width="21.11" height="31.12" style="fill: rgb(235, 235, 235); transform-origin: 311.965px 131.89px; transform: rotate(-90deg);" class="animable"></rect></g></g><g id="freepik--Shadow--inject-2" class="animable" style="transform-origin: 250px 416.24px;"><ellipse id="freepik--path--inject-2" cx="250" cy="416.24" rx="193.89" ry="11.32" style="fill: rgb(245, 245, 245); transform-origin: 250px 416.24px;" class="animable"></ellipse></g><g id="freepik--Device--inject-2" class="animable" style="transform-origin: 270.455px 271.375px;"><rect x="188.22" y="133.46" width="164.47" height="275.83" rx="10.4" style="fill: rgb(38, 50, 56); transform-origin: 270.455px 271.375px;" id="eljpmon8buy48" class="animable"></rect><path d="M347.14,143.37V398.85a4,4,0,0,1-4.09,4H197.42a3.6,3.6,0,0,1-3.65-3.69V143a3.24,3.24,0,0,1,3.12-3.38H233.3a2.58,2.58,0,0,1,2.35,1.63l1.5,3.72a2.57,2.57,0,0,0,2.35,1.62h62a2.55,2.55,0,0,0,2.35-1.6l1.51-3.73a2.57,2.57,0,0,1,2.34-1.64h35.89A3.67,3.67,0,0,1,347.14,143.37Z" style="fill: rgb(64, 123, 255); transform-origin: 270.454px 271.236px;" id="elsx59xyna1rb" class="animable"></path><g id="elezc5wnudaw"><path d="M347.14,143.37V398.85a4,4,0,0,1-4.09,4H197.42a3.6,3.6,0,0,1-3.65-3.69V143a3.24,3.24,0,0,1,3.12-3.38H233.3a2.58,2.58,0,0,1,2.35,1.63l1.5,3.72a2.57,2.57,0,0,0,2.35,1.62h62a2.55,2.55,0,0,0,2.35-1.6l1.51-3.73a2.57,2.57,0,0,1,2.34-1.64h35.89A3.67,3.67,0,0,1,347.14,143.37Z" style="opacity: 0.3; isolation: isolate; transform-origin: 270.454px 271.236px;" class="animable"></path></g><g id="el71dghaf5cbj"><rect x="193.77" y="156.87" width="153.37" height="227.21" style="fill: rgb(255, 255, 255); opacity: 0.7; isolation: isolate; transform-origin: 270.455px 270.475px;" class="animable"></rect></g><g id="elmdtl1qyurq"><rect x="210.67" y="148.23" width="1.89" height="2.53" style="fill: rgb(255, 255, 255); opacity: 0.6; isolation: isolate; transform-origin: 211.615px 149.495px; transform: rotate(180deg);" class="animable"></rect></g><g id="elzwcsxqstk8p"><rect x="207.58" y="147.39" width="1.89" height="3.37" style="fill: rgb(255, 255, 255); opacity: 0.6; isolation: isolate; transform-origin: 208.525px 149.075px; transform: rotate(180deg);" class="animable"></rect></g><g id="el8dpmaiucd7"><rect x="204.49" y="146.55" width="1.89" height="4.21" style="fill: rgb(255, 255, 255); opacity: 0.6; isolation: isolate; transform-origin: 205.435px 148.655px; transform: rotate(180deg);" class="animable"></rect></g><g id="elxat862k2f4c"><rect x="201.41" y="145.7" width="1.89" height="5.05" style="fill: rgb(255, 255, 255); opacity: 0.6; isolation: isolate; transform-origin: 202.355px 148.225px; transform: rotate(180deg);" class="animable"></rect></g><g id="el2q9wszfvvk1"><rect x="328.66" y="147.31" width="1.12" height="2.53" style="fill: rgb(255, 255, 255); opacity: 0.6; isolation: isolate; transform-origin: 329.22px 148.575px;" class="animable"></rect></g><g id="elgm24i9h4os6"><rect x="330.55" y="146.39" width="8.95" height="4.37" style="fill: rgb(255, 255, 255); opacity: 0.6; isolation: isolate; transform-origin: 335.025px 148.575px; transform: rotate(180deg);" class="animable"></rect></g><path d="M241,356.85v.58h-4.47v-6.31h4.33v.57h-3.66v2.25h3.26v.57h-3.26v2.34Z" style="fill: rgb(64, 123, 255); transform-origin: 238.765px 354.275px;" id="ellij6ye2ixh" class="animable"></path><path d="M246.75,354.68v2.75h-.64v-2.69a1.32,1.32,0,0,0-1.43-1.51,1.55,1.55,0,0,0-1.66,1.71v2.49h-.64v-4.75H243v.88a2,2,0,0,1,1.8-.91A1.82,1.82,0,0,1,246.75,354.68Z" style="fill: rgb(64, 123, 255); transform-origin: 244.571px 355.037px;" id="elfjyit3bwxtt" class="animable"></path><path d="M248,355.06a2.34,2.34,0,0,1,2.45-2.41,2.07,2.07,0,0,1,1.86.94l-.48.32a1.61,1.61,0,0,0-1.38-.7,1.85,1.85,0,0,0,0,3.69,1.6,1.6,0,0,0,1.38-.69l.48.33a2.1,2.1,0,0,1-1.86.93A2.34,2.34,0,0,1,248,355.06Z" style="fill: rgb(64, 123, 255); transform-origin: 250.154px 355.06px;" id="elsmjq127cz7g" class="animable"></path><path d="M256,352.65v.62h-.15a1.54,1.54,0,0,0-1.6,1.75v2.42h-.64v-4.75h.62v.93A1.78,1.78,0,0,1,256,352.65Z" style="fill: rgb(64, 123, 255); transform-origin: 254.805px 355.04px;" id="el005lk0xm94tty" class="animable"></path><path d="M261.33,352.68,259,358c-.39.92-.9,1.22-1.58,1.22a1.61,1.61,0,0,1-1.15-.43l.3-.48a1.15,1.15,0,0,0,.86.36c.43,0,.72-.2,1-.79l.2-.46-2.12-4.74h.67l1.79,4,1.78-4Z" style="fill: rgb(64, 123, 255); transform-origin: 258.8px 355.95px;" id="elq6vhbch5te" class="animable"></path><path d="M267.05,355.06a2.29,2.29,0,0,1-2.37,2.41,2.08,2.08,0,0,1-1.8-.93v2.64h-.64v-6.5h.61v.94a2.07,2.07,0,0,1,1.83-1A2.29,2.29,0,0,1,267.05,355.06Zm-.64,0a1.77,1.77,0,1,0-3.54,0,1.77,1.77,0,1,0,3.54,0Z" style="fill: rgb(64, 123, 255); transform-origin: 264.648px 355.899px;" id="el54js31yc5r3" class="animable"></path><path d="M270.86,357.14a1.56,1.56,0,0,1-1,.33,1.25,1.25,0,0,1-1.39-1.38v-2.86h-.85v-.55h.85v-1h.64v1h1.44v.55h-1.44v2.83a.76.76,0,0,0,.82.86,1.06,1.06,0,0,0,.7-.24Z" style="fill: rgb(64, 123, 255); transform-origin: 269.24px 354.579px;" id="el515c4yc2l6g" class="animable"></path><path d="M271.88,351.19a.46.46,0,0,1,.47-.45.45.45,0,0,1,.47.44.47.47,0,0,1-.94,0Zm.14,1.49h.64v4.75H272Z" style="fill: rgb(64, 123, 255); transform-origin: 272.35px 354.085px;" id="eldu6ah4ks8u7" class="animable"></path><path d="M278.82,354.68v2.75h-.64v-2.69a1.33,1.33,0,0,0-1.43-1.51,1.55,1.55,0,0,0-1.66,1.71v2.49h-.64v-4.75h.61v.88a2,2,0,0,1,1.81-.91A1.82,1.82,0,0,1,278.82,354.68Z" style="fill: rgb(64, 123, 255); transform-origin: 276.641px 355.037px;" id="el0biloqv289x6" class="animable"></path><path d="M285,352.68v4.17a2.08,2.08,0,0,1-2.37,2.37,3.3,3.3,0,0,1-2.21-.73l.32-.49a2.81,2.81,0,0,0,1.87.65c1.2,0,1.75-.55,1.75-1.72v-.6a2.15,2.15,0,0,1-1.85.92,2.3,2.3,0,1,1,0-4.6,2.14,2.14,0,0,1,1.88.94v-.91Zm-.62,2.26a1.8,1.8,0,1,0-1.81,1.74A1.7,1.7,0,0,0,284.35,354.94Z" style="fill: rgb(64, 123, 255); transform-origin: 282.617px 355.946px;" id="ell81t0yjf9q" class="animable"></path><path d="M293.17,351.12v.46l-2.65,5.85h-.7l2.6-5.74h-3.25v1.18h-.64v-1.75Z" style="fill: rgb(64, 123, 255); transform-origin: 290.85px 354.275px;" id="elz342evqxk6" class="animable"></path><path d="M298.14,355.57c0,1.07-.75,1.91-2.29,1.91a3.26,3.26,0,0,1-2.27-.81l.32-.51a2.77,2.77,0,0,0,1.94.73c1.07,0,1.64-.53,1.64-1.29s-.5-1.32-2.11-1.32H294l.32-3.16h3.46v.57h-2.89l-.22,2h.81C297.42,353.7,298.14,354.45,298.14,355.57Z" style="fill: rgb(64, 123, 255); transform-origin: 295.86px 354.301px;" id="elh661erj46eh" class="animable"></path><path d="M298.78,352.78c0-1,.58-1.71,1.43-1.71s1.42.68,1.42,1.71-.58,1.72-1.42,1.72S298.78,353.81,298.78,352.78Zm2.4,0c0-.82-.39-1.3-1-1.3s-1,.49-1,1.3.38,1.31,1,1.31S301.18,353.6,301.18,352.78Zm2.85-1.66h.53l-4.31,6.31h-.53Zm-1.38,4.64c0-1,.59-1.71,1.43-1.71s1.42.68,1.42,1.71-.58,1.71-1.42,1.71S302.65,356.79,302.65,355.76Zm2.4,0c0-.81-.38-1.31-1-1.31s-1,.49-1,1.31.39,1.31,1,1.31S305.05,356.57,305.05,355.76Z" style="fill: rgb(64, 123, 255); transform-origin: 302.14px 354.27px;" id="elvnpr14mqtvr" class="animable"></path><g id="ely2p5drsuk4f"><path d="M270.43,140a2.11,2.11,0,1,1-2.11-2.11A2.11,2.11,0,0,1,270.43,140Z" style="fill: rgb(255, 255, 255); opacity: 0.6; isolation: isolate; transform-origin: 268.32px 140px;" class="animable"></path></g><g id="el9zy77qton1l"><path d="M274.69,140a1.35,1.35,0,1,1-1.35-1.35A1.36,1.36,0,0,1,274.69,140Z" style="fill: rgb(255, 255, 255); opacity: 0.6; isolation: isolate; transform-origin: 273.34px 140px;" class="animable"></path></g><rect x="193.77" y="156.87" width="153.37" height="26.23" style="fill: rgb(64, 123, 255); transform-origin: 270.455px 169.985px;" id="el79dv6gpvyiw" class="animable"></rect><g id="elh20lqioxapm"><g style="opacity: 0.2; transform-origin: 270.67px 259.735px;" class="animable"><path d="M263.47,202l-1.2.15a2.23,2.23,0,0,1-1.64.7,2.46,2.46,0,0,1-1.06-.24l-1.12.22a3.15,3.15,0,0,0,2.18.85A3.2,3.2,0,0,0,263.47,202Z" id="elb3h84rbgbb7" class="animable" style="transform-origin: 260.96px 202.84px;"></path><path d="M269,203.69A3.26,3.26,0,0,0,272,201.6l-1,0a2.31,2.31,0,0,1-4.08.11l-1,.07A3.23,3.23,0,0,0,269,203.69Z" id="elob2efiyoi2" class="animable" style="transform-origin: 268.96px 202.646px;"></path><path d="M276.19,203.61v-1.77l-.91-.07v1.84Z" id="elnsf7ikcvr9i" class="animable" style="transform-origin: 275.735px 202.69px;"></path><path d="M280.73,203.61v-1.14l-.9-.16v1.3Z" id="el1balxwpd4ow" class="animable" style="transform-origin: 280.28px 202.96px;"></path><path d="M284.88,203.35a3.15,3.15,0,0,0,1.1.3C285.62,203.55,285.25,203.44,284.88,203.35Z" id="elxjixc3w8ew" class="animable" style="transform-origin: 285.43px 203.5px;"></path><path d="M225.84,227.89c2,0,3.52-1.67,3.52-4.48a4.9,4.9,0,0,0-1.19-3.48l-.6.63a4.23,4.23,0,0,1,.86,2.85c0,2.36-1.06,3.65-2.59,3.65a2.35,2.35,0,0,1-2.24-1.63c-.2.27-.39.55-.58.82A3.17,3.17,0,0,0,225.84,227.89Z" id="elq6ootnvufnr" class="animable" style="transform-origin: 226.194px 223.91px;"></path><polygon points="232.16 227.82 233.07 227.82 233.07 219.01 230.09 219.01 230.09 219.81 232.16 219.81 232.16 227.82" id="elyz0t2zv93qh" class="animable" style="transform-origin: 231.58px 223.415px;"></polygon><polygon points="236.71 227.82 237.61 227.82 237.61 219.01 234.63 219.01 234.63 219.81 236.71 219.81 236.71 227.82" id="elb8rjo0rnusu" class="animable" style="transform-origin: 236.12px 223.415px;"></polygon><polygon points="241.25 227.82 242.16 227.82 242.16 219.01 239.17 219.01 239.17 219.81 241.25 219.81 241.25 227.82" id="elaq4neu2aktj" class="animable" style="transform-origin: 240.665px 223.415px;"></polygon><polygon points="245.79 227.82 246.7 227.82 246.7 219.01 243.71 219.01 243.71 219.81 245.79 219.81 245.79 227.82" id="elwqhgeprx2xb" class="animable" style="transform-origin: 245.205px 223.415px;"></polygon><path d="M248.8,223.41c0,2.81,1.47,4.48,3.51,4.48s3.52-1.67,3.52-4.48-1.48-4.48-3.52-4.48S248.8,220.61,248.8,223.41Zm3.51-3.65c1.54,0,2.59,1.3,2.59,3.65s-1.05,3.65-2.59,3.65-2.59-1.29-2.59-3.65S250.77,219.76,252.31,219.76Z" id="elg779unlkpfg" class="animable" style="transform-origin: 252.315px 223.41px;"></path><path d="M260.64,218.93c-2,0-3.51,1.68-3.51,4.48s1.47,4.48,3.51,4.48,3.52-1.67,3.52-4.48S262.68,218.93,260.64,218.93Zm0,8.13c-1.54,0-2.59-1.29-2.59-3.65s1.05-3.65,2.59-3.65,2.59,1.3,2.59,3.65S262.18,227.06,260.64,227.06Z" id="eljqojn4cgr7" class="animable" style="transform-origin: 260.645px 223.41px;"></path><path d="M269,218.93c-2,0-3.51,1.68-3.51,4.48s1.47,4.48,3.51,4.48,3.52-1.67,3.52-4.48S271,218.93,269,218.93Zm0,8.13c-1.54,0-2.59-1.29-2.59-3.65s1.05-3.65,2.59-3.65,2.59,1.3,2.59,3.65S270.5,227.06,269,227.06Z" id="ellhv2ux48b8r" class="animable" style="transform-origin: 269.005px 223.41px;"></path><polygon points="275.3 227.82 276.2 227.82 276.2 219.01 273.22 219.01 273.22 219.81 275.3 219.81 275.3 227.82" id="elqwiv94k58c" class="animable" style="transform-origin: 274.71px 223.415px;"></polygon><polygon points="280.75 227.82 280.75 219.01 277.76 219.01 277.76 219.81 279.84 219.81 279.84 227.82 280.75 227.82" id="el0ud77qbcdbt" class="animable" style="transform-origin: 279.255px 223.415px;"></polygon><path d="M286.36,227.89c2,0,3.52-1.67,3.52-4.48s-1.48-4.48-3.52-4.48-3.51,1.68-3.51,4.48S284.32,227.89,286.36,227.89Zm0-8.13c1.53,0,2.59,1.3,2.59,3.65s-1.06,3.65-2.59,3.65-2.6-1.29-2.6-3.65S284.82,219.76,286.36,219.76Z" id="ell3tgolbbxai" class="animable" style="transform-origin: 286.365px 223.41px;"></path><polygon points="290.61 219.81 292.69 219.81 292.69 227.82 293.59 227.82 293.59 219.01 290.61 219.01 290.61 219.81" id="el8o5rmnxham8" class="animable" style="transform-origin: 292.1px 223.415px;"></polygon><path d="M299.2,227.89c2,0,3.53-1.67,3.53-4.48s-1.49-4.48-3.53-4.48-3.51,1.68-3.51,4.48S297.17,227.89,299.2,227.89Zm0-8.13c1.54,0,2.6,1.3,2.6,3.65s-1.06,3.65-2.6,3.65-2.59-1.29-2.59-3.65S297.67,219.76,299.2,219.76Z" id="elpp1l6ozamjq" class="animable" style="transform-origin: 299.21px 223.41px;"></path><polygon points="305.53 227.82 306.44 227.82 306.44 219.01 303.46 219.01 303.46 219.81 305.53 219.81 305.53 227.82" id="el3qimqpde4z7" class="animable" style="transform-origin: 304.95px 223.415px;"></polygon><path d="M308.54,223.41c0,2.81,1.47,4.48,3.51,4.48s3.53-1.67,3.53-4.48c0-.19,0-.37,0-.55-.4-.49-.82-1-1.24-1.44a5.25,5.25,0,0,1,.35,2c0,2.36-1.06,3.65-2.6,3.65s-2.59-1.29-2.59-3.65,1.06-3.65,2.59-3.65a2.38,2.38,0,0,1,.93.19c-.33-.34-.65-.68-1-1C310,219,308.54,220.63,308.54,223.41Z" id="elotlwu2vnww" class="animable" style="transform-origin: 312.06px 223.425px;"></path><path d="M319.18,227.82c-.26-.4-.53-.79-.8-1.18v1.18Z" id="elojaic3wfwz" class="animable" style="transform-origin: 318.78px 227.23px;"></path><path d="M233.08,215.27l-.52.44h.52Z" id="elfxphaip1j6j" class="animable" style="transform-origin: 232.82px 215.49px;"></path><path d="M238.7,215.79c2,0,3.52-1.67,3.52-4.48a6,6,0,0,0-.37-2.15l-.8.45a5.76,5.76,0,0,1,.24,1.7c0,2.35-1.06,3.65-2.59,3.65a2.5,2.5,0,0,1-2.43-2.2c-.26.19-.52.37-.77.57A3.32,3.32,0,0,0,238.7,215.79Z" id="elglukfb2zgf" class="animable" style="transform-origin: 238.86px 212.475px;"></path><path d="M245,215.71h.91V207c-.46.21-.92.44-1.38.67H245Z" id="el16x1y2ta8dc" class="animable" style="transform-origin: 245.22px 211.355px;"></path><polygon points="249.57 215.71 250.47 215.71 250.47 206.9 247.49 206.9 247.49 207.71 249.57 207.71 249.57 215.71" id="els4jz0tbwxs8" class="animable" style="transform-origin: 248.98px 211.305px;"></polygon><path d="M256.08,215.79c2,0,3.53-1.67,3.53-4.48s-1.49-4.48-3.53-4.48-3.51,1.67-3.51,4.48S254.05,215.79,256.08,215.79Zm0-8.13c1.54,0,2.6,1.29,2.6,3.65s-1.06,3.65-2.6,3.65-2.59-1.3-2.59-3.65S254.55,207.66,256.08,207.66Z" id="el6hxi4nijk8v" class="animable" style="transform-origin: 256.09px 211.31px;"></path><polygon points="262.41 215.71 263.32 215.71 263.32 206.9 260.33 206.9 260.33 207.71 262.41 207.71 262.41 215.71" id="elyjpks5sddhr" class="animable" style="transform-origin: 261.825px 211.305px;"></polygon><path d="M268.93,215.79c2,0,3.53-1.67,3.53-4.48s-1.49-4.48-3.53-4.48-3.51,1.67-3.51,4.48S266.89,215.79,268.93,215.79Zm0-8.13c1.54,0,2.59,1.29,2.59,3.65s-1,3.65-2.59,3.65-2.59-1.3-2.59-3.65S267.4,207.66,268.93,207.66Z" id="el86fgr35kwha" class="animable" style="transform-origin: 268.94px 211.31px;"></path><path d="M277.26,215.79c2,0,3.53-1.67,3.53-4.48s-1.49-4.48-3.53-4.48-3.51,1.67-3.51,4.48S275.22,215.79,277.26,215.79Zm0-8.13c1.54,0,2.59,1.29,2.59,3.65S278.8,215,277.26,215s-2.59-1.3-2.59-3.65S275.72,207.66,277.26,207.66Z" id="elf1c9memkxhd" class="animable" style="transform-origin: 277.27px 211.31px;"></path><path d="M285.59,215.79c2,0,3.53-1.67,3.53-4.48s-1.49-4.48-3.53-4.48-3.51,1.67-3.51,4.48S283.55,215.79,285.59,215.79Zm0-8.13c1.54,0,2.59,1.29,2.59,3.65s-1.05,3.65-2.59,3.65-2.59-1.3-2.59-3.65S284.05,207.66,285.59,207.66Z" id="el10xl1yct6omp" class="animable" style="transform-origin: 285.6px 211.31px;"></path><polygon points="291.92 215.71 292.82 215.71 292.82 206.9 289.84 206.9 289.84 207.71 291.92 207.71 291.92 215.71" id="eld2ml61rufn7" class="animable" style="transform-origin: 291.33px 211.305px;"></polygon><path d="M294.38,207.71h2.08v8h.91v-7.59c-.82-.43-1.64-.83-2.48-1.22h-.51Z" id="ellu42muibplr" class="animable" style="transform-origin: 295.875px 211.305px;"></path><path d="M303,215.79a3.27,3.27,0,0,0,3.07-2.13l-.74-.58A2.42,2.42,0,0,1,303,215c-1.54,0-2.59-1.3-2.59-3.65a6.1,6.1,0,0,1,.16-1.42l-.82-.47a6.4,6.4,0,0,0-.26,1.89C299.47,214.12,300.94,215.79,303,215.79Z" id="el0ojm8aysa3nh" class="animable" style="transform-origin: 302.78px 212.625px;"></path><path d="M220.21,239.92v-8.81h-.27c-.22.37-.43.74-.63,1.12v7.69Z" id="eluk4r5dxemap" class="animable" style="transform-origin: 219.76px 235.515px;"></path><path d="M225.82,240c2,0,3.53-1.68,3.53-4.48s-1.49-4.49-3.53-4.49-3.51,1.68-3.51,4.49S223.78,240,225.82,240Zm0-8.14c1.54,0,2.6,1.3,2.6,3.66s-1.06,3.65-2.6,3.65-2.59-1.3-2.59-3.65S224.29,231.86,225.82,231.86Z" id="ele3g5p3vc62w" class="animable" style="transform-origin: 225.83px 235.515px;"></path><polygon points="232.15 239.92 233.06 239.92 233.06 231.11 230.07 231.11 230.07 231.91 232.15 231.91 232.15 239.92" id="elrh1t7z3azj" class="animable" style="transform-origin: 231.565px 235.515px;"></polygon><polygon points="236.69 239.92 237.6 239.92 237.6 231.11 234.62 231.11 234.62 231.91 236.69 231.91 236.69 239.92" id="els7v37ccr8ci" class="animable" style="transform-origin: 236.11px 235.515px;"></polygon><polygon points="241.24 239.92 242.14 239.92 242.14 231.11 239.16 231.11 239.16 231.91 241.24 231.91 241.24 239.92" id="elbuovdpqlfic" class="animable" style="transform-origin: 240.65px 235.515px;"></polygon><polygon points="245.78 239.92 246.69 239.92 246.69 231.11 243.7 231.11 243.7 231.91 245.78 231.91 245.78 239.92" id="eldr2ufzkhwed" class="animable" style="transform-origin: 245.195px 235.515px;"></polygon><path d="M252.3,231c-2,0-3.51,1.68-3.51,4.49s1.47,4.48,3.51,4.48,3.52-1.68,3.52-4.48S254.34,231,252.3,231Zm0,8.14c-1.54,0-2.6-1.3-2.6-3.65s1.06-3.66,2.6-3.66,2.59,1.3,2.59,3.66S253.83,239.17,252.3,239.17Z" id="el89dppjwohpp" class="animable" style="transform-origin: 252.305px 235.485px;"></path><path d="M260.63,231c-2,0-3.51,1.68-3.51,4.49s1.47,4.48,3.51,4.48,3.52-1.68,3.52-4.48S262.67,231,260.63,231Zm0,8.14c-1.54,0-2.6-1.3-2.6-3.65s1.06-3.66,2.6-3.66,2.59,1.3,2.59,3.66S262.16,239.17,260.63,239.17Z" id="el6fpoztvky0m" class="animable" style="transform-origin: 260.635px 235.485px;"></path><path d="M269,231c-2,0-3.52,1.68-3.52,4.49S266.92,240,269,240s3.52-1.68,3.52-4.48S271,231,269,231Zm0,8.14c-1.54,0-2.6-1.3-2.6-3.65s1.06-3.66,2.6-3.66,2.59,1.3,2.59,3.66S270.49,239.17,269,239.17Z" id="elzrrvk3qmwp" class="animable" style="transform-origin: 269px 235.5px;"></path><polygon points="275.29 239.92 276.19 239.92 276.19 231.11 273.21 231.11 273.21 231.91 275.29 231.91 275.29 239.92" id="elh1m39pk9jr" class="animable" style="transform-origin: 274.7px 235.515px;"></polygon><polygon points="277.75 231.91 279.83 231.91 279.83 239.92 280.73 239.92 280.73 231.11 277.75 231.11 277.75 231.91" id="elj4zqqd5awn" class="animable" style="transform-origin: 279.24px 235.515px;"></polygon><path d="M286.35,240c2,0,3.52-1.68,3.52-4.48s-1.48-4.49-3.52-4.49-3.52,1.68-3.52,4.49S284.31,240,286.35,240Zm0-8.14c1.53,0,2.59,1.3,2.59,3.66s-1.06,3.65-2.59,3.65-2.6-1.3-2.6-3.65S284.81,231.86,286.35,231.86Z" id="elgpz2fflf7h5" class="animable" style="transform-origin: 286.35px 235.515px;"></path><polygon points="293.58 239.92 293.58 231.11 290.6 231.11 290.6 231.91 292.67 231.91 292.67 239.92 293.58 239.92" id="eloq8cxvo3px" class="animable" style="transform-origin: 292.09px 235.515px;"></polygon><path d="M299.19,240c2,0,3.53-1.68,3.53-4.48s-1.49-4.49-3.53-4.49-3.51,1.68-3.51,4.49S297.15,240,299.19,240Zm0-8.14c1.54,0,2.6,1.3,2.6,3.66s-1.06,3.65-2.6,3.65-2.59-1.3-2.59-3.65S297.66,231.86,299.19,231.86Z" id="elcbqzr40d0gh" class="animable" style="transform-origin: 299.2px 235.515px;"></path><polygon points="305.52 239.92 306.43 239.92 306.43 231.11 303.44 231.11 303.44 231.91 305.52 231.91 305.52 239.92" id="el3mi0xl3w2ag" class="animable" style="transform-origin: 304.935px 235.515px;"></polygon><path d="M312,240c2,0,3.52-1.68,3.52-4.48S314.08,231,312,231s-3.51,1.68-3.51,4.49S310,240,312,240Zm0-8.14c1.53,0,2.59,1.3,2.59,3.66s-1.06,3.65-2.59,3.65-2.59-1.3-2.59-3.65S310.5,231.86,312,231.86Z" id="elt397i5bj68l" class="animable" style="transform-origin: 312.005px 235.5px;"></path><polygon points="318.37 239.92 319.27 239.92 319.27 231.11 316.29 231.11 316.29 231.91 318.37 231.91 318.37 239.92" id="elv7h584hthne" class="animable" style="transform-origin: 317.78px 235.515px;"></polygon><path d="M324.89,240c.13,0,.25,0,.38,0-.1-.27-.2-.54-.31-.8h-.07c-1.54,0-2.6-1.3-2.6-3.65a5.59,5.59,0,0,1,.28-1.81l-.51-1a5.49,5.49,0,0,0-.69,2.82C321.37,238.32,322.85,240,324.89,240Z" id="elyufumocpz2" class="animable" style="transform-origin: 323.319px 236.37px;"></path><path d="M217.51,255.24c-2,0-3.52,1.68-3.52,4.48s1.48,4.49,3.52,4.49,3.52-1.68,3.52-4.49S219.55,255.24,217.51,255.24Zm0,8.13c-1.54,0-2.6-1.29-2.6-3.65s1.06-3.65,2.6-3.65,2.59,1.3,2.59,3.65S219,263.37,217.51,263.37Z" id="elwa69qtv6q5l" class="animable" style="transform-origin: 217.51px 259.725px;"></path><path d="M225.84,255.24c-2,0-3.52,1.68-3.52,4.48s1.48,4.49,3.52,4.49,3.52-1.68,3.52-4.49S227.87,255.24,225.84,255.24Zm0,8.13c-1.54,0-2.6-1.29-2.6-3.65s1.06-3.65,2.6-3.65,2.59,1.3,2.59,3.65S227.37,263.37,225.84,263.37Z" id="elpueu50engz" class="animable" style="transform-origin: 225.84px 259.725px;"></path><polygon points="233.07 264.13 233.07 255.32 230.09 255.32 230.09 256.12 232.16 256.12 232.16 264.13 233.07 264.13" id="elfndj5epkv4e" class="animable" style="transform-origin: 231.58px 259.725px;"></polygon><polygon points="237.61 264.13 237.61 255.32 234.63 255.32 234.63 256.12 236.71 256.12 236.71 264.13 237.61 264.13" id="el4p33r4dkqq7" class="animable" style="transform-origin: 236.12px 259.725px;"></polygon><polygon points="242.16 264.13 242.16 255.32 239.17 255.32 239.17 256.12 241.25 256.12 241.25 264.13 242.16 264.13" id="el3uiyyeez53k" class="animable" style="transform-origin: 240.665px 259.725px;"></polygon><polygon points="246.7 264.13 246.7 255.32 243.71 255.32 243.71 256.12 245.79 256.12 245.79 264.13 246.7 264.13" id="ela6hesee92eo" class="animable" style="transform-origin: 245.205px 259.725px;"></polygon><path d="M248.8,259.72c0,2.81,1.47,4.49,3.51,4.49s3.52-1.68,3.52-4.49-1.48-4.48-3.52-4.48S248.8,256.92,248.8,259.72Zm3.51-3.65c1.54,0,2.59,1.3,2.59,3.65s-1.05,3.65-2.59,3.65-2.59-1.29-2.59-3.65S250.77,256.07,252.31,256.07Z" id="el20f9c4tcv3t" class="animable" style="transform-origin: 252.315px 259.725px;"></path><path d="M260.64,255.24c-2,0-3.51,1.68-3.51,4.48s1.47,4.49,3.51,4.49,3.52-1.68,3.52-4.49S262.68,255.24,260.64,255.24Zm0,8.13c-1.54,0-2.59-1.29-2.59-3.65s1.05-3.65,2.59-3.65,2.59,1.3,2.59,3.65S262.17,263.37,260.64,263.37Z" id="el8gc25f5lf5" class="animable" style="transform-origin: 260.645px 259.725px;"></path><path d="M269,264.21c2,0,3.52-1.68,3.52-4.49s-1.48-4.48-3.52-4.48-3.51,1.68-3.51,4.48S266.93,264.21,269,264.21Zm0-8.14c1.53,0,2.59,1.3,2.59,3.65s-1.06,3.65-2.59,3.65-2.59-1.29-2.59-3.65S267.43,256.07,269,256.07Z" id="elnixg3hf7pz" class="animable" style="transform-origin: 269.005px 259.725px;"></path><polygon points="276.2 264.13 276.2 255.32 273.22 255.32 273.22 256.12 275.3 256.12 275.3 264.13 276.2 264.13" id="el0b5em9e4wuvh" class="animable" style="transform-origin: 274.71px 259.725px;"></polygon><polygon points="280.75 255.32 277.76 255.32 277.76 256.12 279.84 256.12 279.84 264.13 280.75 264.13 280.75 255.32" id="elkjkzpnz5nx" class="animable" style="transform-origin: 279.255px 259.725px;"></polygon><path d="M286.36,255.24c-2,0-3.51,1.68-3.51,4.48s1.47,4.49,3.51,4.49,3.52-1.68,3.52-4.49S288.4,255.24,286.36,255.24Zm0,8.13c-1.54,0-2.6-1.29-2.6-3.65s1.06-3.65,2.6-3.65,2.59,1.3,2.59,3.65S287.89,263.37,286.36,263.37Z" id="el179fk1byesj" class="animable" style="transform-origin: 286.365px 259.725px;"></path><polygon points="290.61 256.12 292.69 256.12 292.69 264.13 293.59 264.13 293.59 255.32 290.61 255.32 290.61 256.12" id="el2azn0mj3icj" class="animable" style="transform-origin: 292.1px 259.725px;"></polygon><path d="M299.2,264.21c2,0,3.53-1.68,3.53-4.49s-1.49-4.48-3.53-4.48-3.51,1.68-3.51,4.48S297.16,264.21,299.2,264.21Zm0-8.14c1.54,0,2.6,1.3,2.6,3.65s-1.06,3.65-2.6,3.65-2.59-1.29-2.59-3.65S297.67,256.07,299.2,256.07Z" id="eleyn9fza6yd7" class="animable" style="transform-origin: 299.21px 259.725px;"></path><polygon points="306.44 264.13 306.44 255.32 303.46 255.32 303.46 256.12 305.53 256.12 305.53 264.13 306.44 264.13" id="elzqm1s4i0gvq" class="animable" style="transform-origin: 304.95px 259.725px;"></polygon><path d="M312.05,264.21c2,0,3.53-1.68,3.53-4.49s-1.49-4.48-3.53-4.48-3.51,1.68-3.51,4.48S310,264.21,312.05,264.21Zm0-8.14c1.54,0,2.6,1.3,2.6,3.65s-1.06,3.65-2.6,3.65-2.59-1.29-2.59-3.65S310.52,256.07,312.05,256.07Z" id="el3xt3e3d155j" class="animable" style="transform-origin: 312.06px 259.725px;"></path><polygon points="319.29 264.13 319.29 255.32 316.3 255.32 316.3 256.12 318.38 256.12 318.38 264.13 319.29 264.13" id="elfsc0gp61ulf" class="animable" style="transform-origin: 317.795px 259.725px;"></polygon><path d="M321.39,259.72c0,2.81,1.47,4.49,3.51,4.49s3.52-1.68,3.52-4.49-1.48-4.48-3.52-4.48S321.39,256.92,321.39,259.72Zm3.51-3.65c1.53,0,2.59,1.3,2.59,3.65s-1.06,3.65-2.59,3.65-2.59-1.29-2.59-3.65S323.36,256.07,324.9,256.07Z" id="el28zx9w7g17h" class="animable" style="transform-origin: 324.905px 259.725px;"></path><path d="M216.53,247.62a4.44,4.44,0,0,0-1.85-4l-.24.86a3.87,3.87,0,0,1,1.16,3.15c0,2.34-1,3.64-2.58,3.65,0,.27-.07.55-.1.82H213C215,252.1,216.53,250.43,216.53,247.62Z" id="elm164dk16miq" class="animable" style="transform-origin: 214.733px 247.86px;"></path><polygon points="219.33 252.03 220.24 252.03 220.24 243.21 217.25 243.21 217.25 244.02 219.33 244.02 219.33 252.03" id="elnmuqypa5fp" class="animable" style="transform-origin: 218.745px 247.62px;"></polygon><path d="M225.85,243.14c-2,0-3.51,1.67-3.51,4.48s1.47,4.48,3.51,4.48,3.52-1.67,3.52-4.48S227.89,243.14,225.85,243.14Zm0,8.13c-1.54,0-2.59-1.3-2.59-3.65s1.05-3.65,2.59-3.65,2.59,1.3,2.59,3.65S227.38,251.27,225.85,251.27Z" id="elc0rso6hjvh8" class="animable" style="transform-origin: 225.855px 247.62px;"></path><polygon points="230.1 244.02 232.18 244.02 232.18 252.03 233.08 252.03 233.08 243.21 230.1 243.21 230.1 244.02" id="eltebft2vv9oi" class="animable" style="transform-origin: 231.59px 247.62px;"></polygon><path d="M235.18,247.62c0,2.81,1.48,4.48,3.52,4.48s3.52-1.67,3.52-4.48-1.49-4.48-3.52-4.48S235.18,244.81,235.18,247.62ZM238.7,244c1.53,0,2.59,1.3,2.59,3.65s-1.06,3.65-2.59,3.65-2.6-1.3-2.6-3.65S237.16,244,238.7,244Z" id="el0cn4s91hssw" class="animable" style="transform-origin: 238.7px 247.62px;"></path><polygon points="245.02 252.03 245.93 252.03 245.93 243.21 242.95 243.21 242.95 244.02 245.02 244.02 245.02 252.03" id="el1lk1p90dnl5" class="animable" style="transform-origin: 244.44px 247.62px;"></polygon><polygon points="249.56 252.03 250.47 252.03 250.47 243.21 247.49 243.21 247.49 244.02 249.56 244.02 249.56 252.03" id="els8sdtitk5d" class="animable" style="transform-origin: 248.98px 247.62px;"></polygon><path d="M252.57,247.62c0,2.81,1.47,4.48,3.51,4.48s3.53-1.67,3.53-4.48-1.49-4.48-3.53-4.48S252.57,244.81,252.57,247.62Zm6.11,0c0,2.35-1.06,3.65-2.6,3.65s-2.59-1.3-2.59-3.65,1.06-3.65,2.59-3.65S258.68,245.27,258.68,247.62Z" id="elp53fw4mdzi" class="animable" style="transform-origin: 256.09px 247.62px;"></path><polygon points="263.32 252.03 263.32 243.21 260.33 243.21 260.33 244.02 262.41 244.02 262.41 252.03 263.32 252.03" id="el5t26usgs0wp" class="animable" style="transform-origin: 261.825px 247.62px;"></polygon><path d="M268.93,252.1c2,0,3.53-1.67,3.53-4.48s-1.49-4.48-3.53-4.48-3.51,1.67-3.51,4.48S266.89,252.1,268.93,252.1Zm0-8.13c1.54,0,2.59,1.3,2.59,3.65s-1,3.65-2.59,3.65-2.59-1.3-2.59-3.65S267.4,244,268.93,244Z" id="el1sc1rac5e8g" class="animable" style="transform-origin: 268.94px 247.62px;"></path><path d="M273.75,247.62c0,2.81,1.47,4.48,3.51,4.48s3.52-1.67,3.52-4.48-1.48-4.48-3.52-4.48S273.75,244.81,273.75,247.62Zm6.1,0c0,2.35-1.05,3.65-2.59,3.65s-2.59-1.3-2.59-3.65,1.05-3.65,2.59-3.65S279.85,245.27,279.85,247.62Z" id="elheldl0bwxec" class="animable" style="transform-origin: 277.265px 247.62px;"></path><path d="M285.59,252.1c2,0,3.53-1.67,3.53-4.48s-1.49-4.48-3.53-4.48-3.51,1.67-3.51,4.48S283.55,252.1,285.59,252.1Zm0-8.13c1.54,0,2.59,1.3,2.59,3.65s-1.05,3.65-2.59,3.65S283,250,283,247.62,284.05,244,285.59,244Z" id="elr1gk9zibs5d" class="animable" style="transform-origin: 285.6px 247.62px;"></path><polygon points="291.92 252.03 292.82 252.03 292.82 243.21 289.84 243.21 289.84 244.02 291.92 244.02 291.92 252.03" id="el7evhlyuojdr" class="animable" style="transform-origin: 291.33px 247.62px;"></polygon><polygon points="296.46 252.03 297.37 252.03 297.37 243.21 294.38 243.21 294.38 244.02 296.46 244.02 296.46 252.03" id="el8vcsyxvtbgw" class="animable" style="transform-origin: 295.875px 247.62px;"></polygon><path d="M299.47,247.62c0,2.81,1.47,4.48,3.51,4.48s3.52-1.67,3.52-4.48-1.48-4.48-3.52-4.48S299.47,244.81,299.47,247.62ZM303,244c1.54,0,2.59,1.3,2.59,3.65s-1.05,3.65-2.59,3.65-2.59-1.3-2.59-3.65S301.44,244,303,244Z" id="el9o10s92n7lo" class="animable" style="transform-origin: 302.985px 247.62px;"></path><polygon points="309.31 252.03 310.21 252.03 310.21 243.21 307.23 243.21 307.23 244.02 309.31 244.02 309.31 252.03" id="elia79pgxh2hn" class="animable" style="transform-origin: 308.72px 247.62px;"></polygon><path d="M312.31,247.62c0,2.81,1.48,4.48,3.52,4.48s3.52-1.67,3.52-4.48-1.48-4.48-3.52-4.48S312.31,244.81,312.31,247.62Zm3.52-3.65c1.53,0,2.59,1.3,2.59,3.65s-1.06,3.65-2.59,3.65-2.6-1.3-2.6-3.65S314.29,244,315.83,244Z" id="elzy15617v6xh" class="animable" style="transform-origin: 315.83px 247.62px;"></path><polygon points="322.15 252.03 323.06 252.03 323.06 243.21 320.08 243.21 320.08 244.02 322.15 244.02 322.15 252.03" id="elsbljptxa0q" class="animable" style="transform-origin: 321.57px 247.62px;"></polygon><path d="M325.16,247.62c0,2.58,1.25,4.19,3,4.43,0-.28-.07-.57-.11-.85-1.21-.3-2-1.54-2-3.58a4.49,4.49,0,0,1,.73-2.71c-.09-.33-.19-.64-.28-1A4.79,4.79,0,0,0,325.16,247.62Z" id="elvv197wd72s" class="animable" style="transform-origin: 326.653px 247.98px;"></path><path d="M216.5,271.83c0-2.81-1.48-4.48-3.52-4.48h-.06c0,.28.06.56.1.83,1.51,0,2.55,1.32,2.55,3.65a4,4,0,0,1-1.13,3.14c.07.28.16.57.24.85A4.43,4.43,0,0,0,216.5,271.83Z" id="elfiy9afm82fg" class="animable" style="transform-origin: 214.719px 271.585px;"></path><polygon points="217.23 268.23 219.31 268.23 219.31 276.23 220.21 276.23 220.21 267.42 217.23 267.42 217.23 268.23" id="elkyagl4dvg9p" class="animable" style="transform-origin: 218.72px 271.825px;"></polygon><path d="M225.82,276.31c2,0,3.53-1.68,3.53-4.48s-1.49-4.48-3.53-4.48-3.51,1.67-3.51,4.48S223.78,276.31,225.82,276.31Zm0-8.13c1.54,0,2.6,1.29,2.6,3.65s-1.06,3.65-2.6,3.65-2.59-1.3-2.59-3.65S224.29,268.18,225.82,268.18Z" id="ell1m9x3yvlh" class="animable" style="transform-origin: 225.83px 271.83px;"></path><polygon points="232.15 276.23 233.06 276.23 233.06 267.42 230.07 267.42 230.07 268.23 232.15 268.23 232.15 276.23" id="elzmanrk6od6i" class="animable" style="transform-origin: 231.565px 271.825px;"></polygon><polygon points="236.69 276.23 237.6 276.23 237.6 267.42 234.62 267.42 234.62 268.23 236.69 268.23 236.69 276.23" id="el5mkhr2jg6c" class="animable" style="transform-origin: 236.11px 271.825px;"></polygon><polygon points="239.16 268.23 241.24 268.23 241.24 276.23 242.14 276.23 242.14 267.42 239.16 267.42 239.16 268.23" id="elzy7k0lvnsa" class="animable" style="transform-origin: 240.65px 271.825px;"></polygon><polygon points="243.7 268.23 245.78 268.23 245.78 276.23 246.69 276.23 246.69 267.42 243.7 267.42 243.7 268.23" id="elsqjvutxfgm" class="animable" style="transform-origin: 245.195px 271.825px;"></polygon><path d="M252.3,276.31c2,0,3.52-1.68,3.52-4.48s-1.48-4.48-3.52-4.48-3.51,1.67-3.51,4.48S250.26,276.31,252.3,276.31Zm0-8.13c1.53,0,2.59,1.29,2.59,3.65s-1.06,3.65-2.59,3.65-2.6-1.3-2.6-3.65S250.76,268.18,252.3,268.18Z" id="el50fyz07o7ej" class="animable" style="transform-origin: 252.305px 271.83px;"></path><path d="M260.63,267.35c-2,0-3.51,1.67-3.51,4.48s1.47,4.48,3.51,4.48,3.52-1.68,3.52-4.48S262.67,267.35,260.63,267.35Zm0,8.13c-1.54,0-2.6-1.3-2.6-3.65s1.06-3.65,2.6-3.65,2.59,1.29,2.59,3.65S262.16,275.48,260.63,275.48Z" id="elu5hvy2rxaxo" class="animable" style="transform-origin: 260.635px 271.83px;"></path><path d="M269,276.31c2,0,3.52-1.68,3.52-4.48s-1.48-4.48-3.52-4.48-3.52,1.67-3.52,4.48S266.92,276.31,269,276.31Zm0-8.13c1.53,0,2.59,1.29,2.59,3.65s-1.06,3.65-2.59,3.65-2.6-1.3-2.6-3.65S267.42,268.18,269,268.18Z" id="el9ti7v87j06u" class="animable" style="transform-origin: 269px 271.83px;"></path><polygon points="275.29 276.23 276.19 276.23 276.19 267.42 273.21 267.42 273.21 268.23 275.29 268.23 275.29 276.23" id="elk7xg99475f" class="animable" style="transform-origin: 274.7px 271.825px;"></polygon><polygon points="280.73 276.23 280.73 267.42 277.75 267.42 277.75 268.23 279.83 268.23 279.83 276.23 280.73 276.23" id="elfm6cvmhnnev" class="animable" style="transform-origin: 279.24px 271.825px;"></polygon><path d="M286.35,276.31c2,0,3.52-1.68,3.52-4.48s-1.48-4.48-3.52-4.48-3.52,1.67-3.52,4.48S284.31,276.31,286.35,276.31Zm0-8.13c1.53,0,2.59,1.29,2.59,3.65s-1.06,3.65-2.59,3.65-2.6-1.3-2.6-3.65S284.81,268.18,286.35,268.18Z" id="elix50py5ehd" class="animable" style="transform-origin: 286.35px 271.83px;"></path><polygon points="293.58 267.42 290.6 267.42 290.6 268.23 292.67 268.23 292.67 276.23 293.58 276.23 293.58 267.42" id="el2kvkra9208h" class="animable" style="transform-origin: 292.09px 271.825px;"></polygon><path d="M299.19,276.31c2,0,3.53-1.68,3.53-4.48s-1.49-4.48-3.53-4.48-3.51,1.67-3.51,4.48S297.15,276.31,299.19,276.31Zm0-8.13c1.54,0,2.6,1.29,2.6,3.65s-1.06,3.65-2.6,3.65-2.59-1.3-2.59-3.65S297.66,268.18,299.19,268.18Z" id="elv423rqoa0jk" class="animable" style="transform-origin: 299.2px 271.83px;"></path><polygon points="303.44 268.23 305.52 268.23 305.52 276.23 306.43 276.23 306.43 267.42 303.44 267.42 303.44 268.23" id="elcenl33y9mw" class="animable" style="transform-origin: 304.935px 271.825px;"></polygon><path d="M315.56,271.83c0-2.81-1.48-4.48-3.52-4.48s-3.51,1.67-3.51,4.48,1.47,4.48,3.51,4.48S315.56,274.63,315.56,271.83ZM312,275.48c-1.54,0-2.59-1.3-2.59-3.65s1.05-3.65,2.59-3.65,2.59,1.29,2.59,3.65S313.57,275.48,312,275.48Z" id="elphj30mnnut" class="animable" style="transform-origin: 312.045px 271.83px;"></path><polygon points="316.29 268.23 318.37 268.23 318.37 276.23 319.27 276.23 319.27 267.42 316.29 267.42 316.29 268.23" id="elmg8xxg8fpk" class="animable" style="transform-origin: 317.78px 271.825px;"></polygon><path d="M324.89,267.35c-2,0-3.52,1.67-3.52,4.48s1.48,4.48,3.52,4.48a3.23,3.23,0,0,0,1.52-.38c.15-.52.31-1,.44-1.56a2.25,2.25,0,0,1-2,1.11c-1.54,0-2.6-1.3-2.6-3.65s1.06-3.65,2.6-3.65,2.55,1.26,2.58,3.54c.17-.78.31-1.57.44-2.36A3.24,3.24,0,0,0,324.89,267.35Z" id="el7lg3bskqggp" class="animable" style="transform-origin: 324.62px 271.83px;"></path><path d="M229.36,296c0-2.8-1.48-4.48-3.52-4.48A3.18,3.18,0,0,0,223,293.2l.58.81a2.36,2.36,0,0,1,2.24-1.63c1.53,0,2.59,1.3,2.59,3.65a4.26,4.26,0,0,1-.86,2.86l.6.63A4.91,4.91,0,0,0,229.36,296Z" id="elmfpywtf65pj" class="animable" style="transform-origin: 226.184px 295.52px;"></path><polygon points="232.16 300.44 233.07 300.44 233.07 291.63 230.09 291.63 230.09 292.43 232.16 292.43 232.16 300.44" id="elwxpd13z3b5" class="animable" style="transform-origin: 231.58px 296.035px;"></polygon><polygon points="234.63 292.43 236.71 292.43 236.71 300.44 237.61 300.44 237.61 291.63 234.63 291.63 234.63 292.43" id="elnd5zbkyi76p" class="animable" style="transform-origin: 236.12px 296.035px;"></polygon><polygon points="239.17 292.43 241.25 292.43 241.25 300.44 242.16 300.44 242.16 291.63 239.17 291.63 239.17 292.43" id="elsbm3i3jt0ck" class="animable" style="transform-origin: 240.665px 296.035px;"></polygon><polygon points="243.71 292.43 245.79 292.43 245.79 300.44 246.7 300.44 246.7 291.63 243.71 291.63 243.71 292.43" id="ellizz140gjia" class="animable" style="transform-origin: 245.205px 296.035px;"></polygon><path d="M252.31,291.55c-2,0-3.51,1.68-3.51,4.48s1.47,4.49,3.51,4.49,3.52-1.68,3.52-4.49S254.35,291.55,252.31,291.55Zm0,8.13c-1.54,0-2.59-1.29-2.59-3.65s1.05-3.65,2.59-3.65,2.59,1.3,2.59,3.65S253.85,299.68,252.31,299.68Z" id="el0wcsynd21c0e" class="animable" style="transform-origin: 252.315px 296.035px;"></path><path d="M260.64,291.55c-2,0-3.51,1.68-3.51,4.48s1.47,4.49,3.51,4.49,3.52-1.68,3.52-4.49S262.68,291.55,260.64,291.55Zm0,8.13c-1.54,0-2.59-1.29-2.59-3.65s1.05-3.65,2.59-3.65,2.59,1.3,2.59,3.65S262.18,299.68,260.64,299.68Z" id="el6k4saubi6ap" class="animable" style="transform-origin: 260.645px 296.035px;"></path><path d="M269,291.55c-2,0-3.51,1.68-3.51,4.48s1.47,4.49,3.51,4.49,3.52-1.68,3.52-4.49S271,291.55,269,291.55Zm0,8.13c-1.54,0-2.59-1.29-2.59-3.65s1.05-3.65,2.59-3.65,2.59,1.3,2.59,3.65S270.5,299.68,269,299.68Z" id="elefzic8ttece" class="animable" style="transform-origin: 269.005px 296.035px;"></path><polygon points="273.22 292.43 275.3 292.43 275.3 300.44 276.2 300.44 276.2 291.63 273.22 291.63 273.22 292.43" id="elz84jsna1g3p" class="animable" style="transform-origin: 274.71px 296.035px;"></polygon><polygon points="277.76 292.43 279.84 292.43 279.84 300.44 280.75 300.44 280.75 291.63 277.76 291.63 277.76 292.43" id="el45osaz9wh56" class="animable" style="transform-origin: 279.255px 296.035px;"></polygon><path d="M286.36,291.55c-2,0-3.51,1.68-3.51,4.48s1.47,4.49,3.51,4.49,3.52-1.68,3.52-4.49S288.4,291.55,286.36,291.55Zm0,8.13c-1.54,0-2.6-1.29-2.6-3.65s1.06-3.65,2.6-3.65S289,293.68,289,296,287.89,299.68,286.36,299.68Z" id="el4c7gq6q5fv5" class="animable" style="transform-origin: 286.365px 296.035px;"></path><polygon points="290.61 292.43 292.69 292.43 292.69 300.44 293.59 300.44 293.59 291.63 290.61 291.63 290.61 292.43" id="elqmvmroa339n" class="animable" style="transform-origin: 292.1px 296.035px;"></polygon><path d="M299.2,291.55c-2,0-3.51,1.68-3.51,4.48s1.48,4.49,3.51,4.49,3.53-1.68,3.53-4.49S301.24,291.55,299.2,291.55Zm0,8.13c-1.53,0-2.59-1.29-2.59-3.65s1.06-3.65,2.59-3.65,2.6,1.3,2.6,3.65S300.74,299.68,299.2,299.68Z" id="elk9uovwvsm7a" class="animable" style="transform-origin: 299.21px 296.035px;"></path><polygon points="303.46 292.43 305.53 292.43 305.53 300.44 306.44 300.44 306.44 291.63 303.46 291.63 303.46 292.43" id="ele4pc8sezp9s" class="animable" style="transform-origin: 304.95px 296.035px;"></polygon><path d="M312.05,291.55c-2,0-3.51,1.68-3.51,4.48s1.45,4.45,3.46,4.48c.33-.33.66-.68,1-1a2.38,2.38,0,0,1-.93.19c-1.53,0-2.59-1.29-2.59-3.65s1.06-3.65,2.59-3.65,2.6,1.3,2.6,3.65a5.27,5.27,0,0,1-.35,2c.42-.48.84-.95,1.24-1.44,0-.19,0-.36,0-.56C315.58,293.23,314.09,291.55,312.05,291.55Z" id="el1et39l5zqy5" class="animable" style="transform-origin: 312.05px 296.03px;"></path><path d="M316.3,292.43h2.08v.38c.27-.39.54-.78.8-1.18H316.3Z" id="elmds1f2acjn" class="animable" style="transform-origin: 317.74px 292.22px;"></path><path d="M220.24,279.52h-3v.81h2.08v6.93c.19.37.4.72.61,1.08h.3Z" id="el83x6ufmx8pt" class="animable" style="transform-origin: 218.74px 283.93px;"></path><path d="M225.85,279.45c-2,0-3.51,1.67-3.51,4.48s1.47,4.48,3.51,4.48,3.52-1.67,3.52-4.48S227.89,279.45,225.85,279.45Zm0,8.13c-1.54,0-2.59-1.3-2.59-3.65s1.05-3.65,2.59-3.65,2.59,1.3,2.59,3.65S227.38,287.58,225.85,287.58Z" id="elvirwl6cx7wl" class="animable" style="transform-origin: 225.855px 283.93px;"></path><polygon points="230.1 280.33 232.18 280.33 232.18 288.34 233.08 288.34 233.08 279.52 230.1 279.52 230.1 280.33" id="el97t6qht2iic" class="animable" style="transform-origin: 231.59px 283.93px;"></polygon><path d="M238.7,279.45c-2,0-3.52,1.67-3.52,4.48s1.48,4.48,3.52,4.48,3.52-1.67,3.52-4.48S240.73,279.45,238.7,279.45Zm0,8.13c-1.54,0-2.6-1.3-2.6-3.65s1.06-3.65,2.6-3.65,2.59,1.3,2.59,3.65S240.23,287.58,238.7,287.58Z" id="el9ie59fotfrl" class="animable" style="transform-origin: 238.7px 283.93px;"></path><polygon points="245.02 288.34 245.93 288.34 245.93 279.52 242.95 279.52 242.95 280.33 245.02 280.33 245.02 288.34" id="elrqrao32ix" class="animable" style="transform-origin: 244.44px 283.93px;"></polygon><polygon points="247.49 280.33 249.57 280.33 249.57 288.34 250.47 288.34 250.47 279.52 247.49 279.52 247.49 280.33" id="el42c88917q5d" class="animable" style="transform-origin: 248.98px 283.93px;"></polygon><path d="M259.61,283.93c0-2.81-1.49-4.48-3.53-4.48s-3.51,1.67-3.51,4.48,1.48,4.48,3.51,4.48S259.61,286.74,259.61,283.93Zm-3.53,3.65c-1.53,0-2.59-1.3-2.59-3.65s1.06-3.65,2.59-3.65,2.6,1.3,2.6,3.65S257.62,287.58,256.08,287.58Z" id="el3bh37821asy" class="animable" style="transform-origin: 256.09px 283.93px;"></path><polygon points="263.32 288.34 263.32 279.52 260.33 279.52 260.33 280.33 262.41 280.33 262.41 288.34 263.32 288.34" id="ellc9riy305vp" class="animable" style="transform-origin: 261.825px 283.93px;"></polygon><path d="M268.93,288.41c2,0,3.53-1.67,3.53-4.48s-1.49-4.48-3.53-4.48-3.51,1.67-3.51,4.48S266.89,288.41,268.93,288.41Zm0-8.13c1.54,0,2.59,1.3,2.59,3.65s-1,3.65-2.59,3.65-2.59-1.3-2.59-3.65S267.4,280.28,268.93,280.28Z" id="elgtdzb1spbmw" class="animable" style="transform-origin: 268.94px 283.93px;"></path><path d="M277.26,279.45c-2,0-3.51,1.67-3.51,4.48s1.47,4.48,3.51,4.48,3.53-1.67,3.53-4.48S279.3,279.45,277.26,279.45Zm0,8.13c-1.54,0-2.59-1.3-2.59-3.65s1.05-3.65,2.59-3.65,2.59,1.3,2.59,3.65S278.8,287.58,277.26,287.58Z" id="elgb68sxb174a" class="animable" style="transform-origin: 277.27px 283.93px;"></path><path d="M285.59,288.41c2,0,3.53-1.67,3.53-4.48s-1.49-4.48-3.53-4.48-3.51,1.67-3.51,4.48S283.55,288.41,285.59,288.41Zm0-8.13c1.54,0,2.59,1.3,2.59,3.65s-1.05,3.65-2.59,3.65-2.59-1.3-2.59-3.65S284.05,280.28,285.59,280.28Z" id="el777cxgwf65q" class="animable" style="transform-origin: 285.6px 283.93px;"></path><polygon points="292.82 288.34 292.82 279.52 289.84 279.52 289.84 280.33 291.92 280.33 291.92 288.34 292.82 288.34" id="elvkzcomo8eg" class="animable" style="transform-origin: 291.33px 283.93px;"></polygon><polygon points="296.46 288.34 297.37 288.34 297.37 279.52 294.38 279.52 294.38 280.33 296.46 280.33 296.46 288.34" id="elx3ylkftzixr" class="animable" style="transform-origin: 295.875px 283.93px;"></polygon><path d="M303,279.45c-2,0-3.51,1.67-3.51,4.48s1.47,4.48,3.51,4.48,3.52-1.67,3.52-4.48S305,279.45,303,279.45Zm0,8.13c-1.54,0-2.59-1.3-2.59-3.65s1.05-3.65,2.59-3.65,2.59,1.3,2.59,3.65S304.52,287.58,303,287.58Z" id="elmmo15mld4xm" class="animable" style="transform-origin: 303.005px 283.93px;"></path><polygon points="309.31 288.34 310.21 288.34 310.21 279.52 307.23 279.52 307.23 280.33 309.31 280.33 309.31 288.34" id="elt34ibem06b" class="animable" style="transform-origin: 308.72px 283.93px;"></polygon><path d="M315.83,279.45c-2,0-3.52,1.67-3.52,4.48s1.48,4.48,3.52,4.48,3.52-1.67,3.52-4.48S317.87,279.45,315.83,279.45Zm0,8.13c-1.54,0-2.6-1.3-2.6-3.65s1.06-3.65,2.6-3.65,2.59,1.3,2.59,3.65S317.36,287.58,315.83,287.58Z" id="elhq0dlzj6ard" class="animable" style="transform-origin: 315.83px 283.93px;"></path><path d="M320.08,279.52v.81h2.07v6.22c.31-.59.62-1.18.91-1.79v-5.24Z" id="elcvqm8tboynb" class="animable" style="transform-origin: 321.57px 283.035px;"></path><path d="M232.56,303.73l.5.43v-.43Z" id="elo5q90onmpo" class="animable" style="transform-origin: 232.81px 303.945px;"></path><path d="M234.62,303.73v.81h2.07V307l.91.64v-3.9Z" id="eln4wcxrws5uq" class="animable" style="transform-origin: 236.11px 305.685px;"></path><path d="M239.16,303.73v.81h2.08v5.4l.9.52v-6.73Z" id="el1q6pwhfrbxu" class="animable" style="transform-origin: 240.65px 307.095px;"></path><path d="M246.68,303.73h-3v.81h2.08v7.8l.45.2h.45Z" id="elrph2islu9y" class="animable" style="transform-origin: 245.18px 308.135px;"></path><path d="M252.3,303.66c-2,0-3.51,1.67-3.51,4.48s1.47,4.48,3.51,4.48,3.52-1.67,3.52-4.48S254.34,303.66,252.3,303.66Zm0,8.13c-1.54,0-2.6-1.3-2.6-3.65s1.06-3.65,2.6-3.65,2.59,1.29,2.59,3.65S253.83,311.79,252.3,311.79Z" id="elmvk4i53qq2r" class="animable" style="transform-origin: 252.305px 308.14px;"></path><path d="M260.63,303.66c-2,0-3.51,1.67-3.51,4.48s1.47,4.48,3.51,4.48,3.52-1.67,3.52-4.48S262.67,303.66,260.63,303.66Zm0,8.13c-1.54,0-2.6-1.3-2.6-3.65s1.06-3.65,2.6-3.65,2.59,1.29,2.59,3.65S262.16,311.79,260.63,311.79Z" id="elfsj89ei4p6o" class="animable" style="transform-origin: 260.635px 308.14px;"></path><path d="M269,303.66c-2,0-3.52,1.67-3.52,4.48s1.48,4.48,3.52,4.48,3.52-1.67,3.52-4.48S271,303.66,269,303.66Zm0,8.13c-1.54,0-2.6-1.3-2.6-3.65s1.06-3.65,2.6-3.65,2.59,1.29,2.59,3.65S270.49,311.79,269,311.79Z" id="elhoojlc3of4i" class="animable" style="transform-origin: 269px 308.14px;"></path><polygon points="275.29 312.54 276.19 312.54 276.19 303.73 273.21 303.73 273.21 304.54 275.29 304.54 275.29 312.54" id="elz5qejvabxb8" class="animable" style="transform-origin: 274.7px 308.135px;"></polygon><polygon points="277.75 304.54 279.83 304.54 279.83 312.54 280.73 312.54 280.73 303.73 277.75 303.73 277.75 304.54" id="elcodfv7xz9r" class="animable" style="transform-origin: 279.24px 308.135px;"></polygon><path d="M286.35,303.66c-2,0-3.52,1.67-3.52,4.48s1.48,4.48,3.52,4.48,3.52-1.67,3.52-4.48S288.39,303.66,286.35,303.66Zm0,8.13c-1.54,0-2.6-1.3-2.6-3.65s1.06-3.65,2.6-3.65,2.59,1.29,2.59,3.65S287.88,311.79,286.35,311.79Z" id="elztleb6kwck" class="animable" style="transform-origin: 286.35px 308.14px;"></path><polygon points="290.6 304.54 292.67 304.54 292.67 312.54 293.58 312.54 293.58 303.73 290.6 303.73 290.6 304.54" id="elz9b6nsp4wj" class="animable" style="transform-origin: 292.09px 308.135px;"></polygon><path d="M299.19,303.66c-2,0-3.51,1.67-3.51,4.48a5,5,0,0,0,1.16,3.46l.8-.41a4,4,0,0,1-1-3.05c0-2.36,1.06-3.65,2.59-3.65s2.6,1.29,2.6,3.65c0,.23,0,.45,0,.66l1-.62v0C302.72,305.33,301.23,303.66,299.19,303.66Z" id="el4g4uhtgrf3o" class="animable" style="transform-origin: 299.252px 307.63px;"></path><path d="M303.44,303.73v.81h2.08v1.66c.31-.23.6-.48.91-.71v-1.76Z" id="elviuiud2gm5" class="animable" style="transform-origin: 304.935px 304.965px;"></path><path d="M255.32,315.85c.95.26,1.92.49,2.89.7a3.26,3.26,0,0,0-2.89-.7Z" id="el18e5a7myrse" class="animable" style="transform-origin: 256.765px 316.155px;"></path><path d="M260.34,315.84v.8h2.07v.66l.91.12v-1.58Z" id="eloxaenve40vj" class="animable" style="transform-origin: 261.83px 316.63px;"></path><path d="M268.93,315.76a3.24,3.24,0,0,0-3,1.92l1,.08a2.26,2.26,0,0,1,2-1.17,2.28,2.28,0,0,1,2.07,1.28c.33,0,.66,0,1,0A3.26,3.26,0,0,0,268.93,315.76Z" id="el2xxwskiwm9" class="animable" style="transform-origin: 268.965px 316.815px;"></path><path d="M277.26,315.76a3.22,3.22,0,0,0-3,2l1.05-.08a2.25,2.25,0,0,1,1.95-1.08,2.22,2.22,0,0,1,1.64.69l1-.16A3.17,3.17,0,0,0,277.26,315.76Z" id="elb555cfzygek" class="animable" style="transform-origin: 277.08px 316.76px;"></path><path d="M283.68,316.38c.77-.18,1.54-.37,2.29-.58-.12,0-.25,0-.38,0A3.16,3.16,0,0,0,283.68,316.38Z" id="el4r7wrslk1yx" class="animable" style="transform-origin: 284.825px 316.089px;"></path></g></g><path d="M241.77,174.48v.91H236.5v-7.27h5.13V169h-4.09v2.23h3.64v.88h-3.64v2.34Z" style="fill: rgb(255, 255, 255); transform-origin: 239.135px 171.755px;" id="elqkcn389mqx" class="animable"></path><path d="M249.7,168.12v7.27h-.85L244.49,170v5.42h-1v-7.27h.85l4.36,5.42v-5.42Z" style="fill: rgb(255, 255, 255); transform-origin: 246.595px 171.77px;" id="elmlad1y332aj" class="animable"></path><path d="M251.29,171.76a3.68,3.68,0,0,1,3.85-3.72,3.59,3.59,0,0,1,2.76,1.13l-.68.66a2.66,2.66,0,0,0-2-.87,2.8,2.8,0,1,0,0,5.59,2.69,2.69,0,0,0,2-.87l.68.65a3.6,3.6,0,0,1-2.77,1.14A3.67,3.67,0,0,1,251.29,171.76Z" style="fill: rgb(255, 255, 255); transform-origin: 254.595px 171.755px;" id="elxqln7gvp6ta" class="animable"></path><path d="M264.24,175.39l-1.57-2.23-.46,0h-1.79v2.21h-1v-7.27h2.83c1.89,0,3,1,3,2.54a2.29,2.29,0,0,1-1.59,2.29l1.72,2.44Zm0-4.73c0-1-.7-1.63-2-1.63h-1.76v3.26h1.76C263.51,172.29,264.21,171.69,264.21,170.66Z" style="fill: rgb(255, 255, 255); transform-origin: 262.4px 171.745px;" id="elx9ebsqzjknd" class="animable"></path><path d="M269.6,172.88v2.51h-1v-2.53l-2.88-4.74h1.11l2.32,3.83,2.34-3.83h1Z" style="fill: rgb(255, 255, 255); transform-origin: 269.105px 171.755px;" id="elrtfye5mx2dk" class="animable"></path><path d="M279.27,170.66c0,1.57-1.14,2.53-3,2.53h-1.79v2.2h-1v-7.27h2.83C278.13,168.12,279.27,169.08,279.27,170.66Zm-1,0c0-1-.69-1.63-2-1.63h-1.76v3.25h1.76C277.54,172.28,278.23,171.69,278.23,170.66Z" style="fill: rgb(255, 255, 255); transform-origin: 276.375px 171.755px;" id="els7ssst3hu2" class="animable"></path><path d="M282,169h-2.49v-.91h6V169H283v6.36h-1Z" style="fill: rgb(255, 255, 255); transform-origin: 282.51px 171.725px;" id="elzu4f76kweo" class="animable"></path><path d="M286.66,168.12h1v7.27h-1Z" style="fill: rgb(255, 255, 255); transform-origin: 287.16px 171.755px;" id="el9c7cbv4lbpw" class="animable"></path><path d="M289.28,171.76a3.86,3.86,0,1,1,3.87,3.71A3.69,3.69,0,0,1,289.28,171.76Zm6.69,0a2.83,2.83,0,1,0-2.82,2.79A2.74,2.74,0,0,0,296,171.76Z" style="fill: rgb(255, 255, 255); transform-origin: 293.137px 171.612px;" id="elg4ia63rjl2i" class="animable"></path><path d="M304.84,168.12v7.27H304L299.63,170v5.42h-1v-7.27h.85l4.36,5.42v-5.42Z" style="fill: rgb(255, 255, 255); transform-origin: 301.735px 171.77px;" id="elvwmwf9gpkq" class="animable"></path><path d="M288,251.8h-4V240.28a13.28,13.28,0,1,0-26.56,0V251.8h-4V240.28a17.28,17.28,0,1,1,34.56,0Z" style="fill: rgb(255, 255, 255); transform-origin: 270.72px 237.392px;" id="elhlsq0xj0gdc" class="animable"></path><path d="M295.43,250.68l-24.76-7.3-24.76,7.3v14.49a28.89,28.89,0,0,0,18.8,27.06l6,2.22,6-2.22a28.89,28.89,0,0,0,18.8-27.06Z" style="fill: rgb(64, 123, 255); transform-origin: 270.71px 268.915px;" id="el845cz04pzq9" class="animable"></path><g id="elkfd82oc182k"><path d="M265.75,289.41a26,26,0,0,1-16.84-24.24V252.92l21.76-6.41,21.76,6.41v12.25a26,26,0,0,1-16.84,24.24l-4.92,1.84Z" style="opacity: 0.2; isolation: isolate; transform-origin: 270.67px 268.88px;" class="animable"></path></g><path d="M274.43,263.67A3.76,3.76,0,1,0,269,267l-.72,7h4.76l-.72-7A3.75,3.75,0,0,0,274.43,263.67Z" style="fill: rgb(38, 50, 56); transform-origin: 270.67px 266.936px;" id="elawiditpzwxl" class="animable"></path><path d="M341.26,172.13v-2h-1.77a4.66,4.66,0,0,0-.6-1.43l1.26-1.26L338.72,166l-1.26,1.26a4.45,4.45,0,0,0-1.42-.59v-1.78h-2v1.78a4.41,4.41,0,0,0-1.43.59L331.33,166l-1.43,1.43,1.26,1.26a4.41,4.41,0,0,0-.59,1.43h-1.78v2h1.78a4.45,4.45,0,0,0,.59,1.42l-1.26,1.26,1.43,1.43,1.26-1.26a4.66,4.66,0,0,0,1.43.6v1.77h2v-1.77a4.71,4.71,0,0,0,1.42-.6l1.26,1.26,1.43-1.43-1.26-1.26a4.71,4.71,0,0,0,.6-1.42ZM335,173a1.87,1.87,0,1,1,1.86-1.86A1.87,1.87,0,0,1,335,173Z" style="fill: rgb(255, 255, 255); transform-origin: 335.025px 171.115px;" id="elubtzz0jwe6d" class="animable"></path><polygon points="207.66 165.61 200.92 172.02 203 172.02 203 176.62 212.32 176.62 212.32 172.02 214.41 172.02 207.66 165.61" style="fill: rgb(255, 255, 255); transform-origin: 207.665px 171.115px;" id="elv7umtjzjvag" class="animable"></polygon><g id="elx8lagyvq1be"><path d="M322.37,334H219a5.48,5.48,0,0,0,0,11h103.4a5.48,5.48,0,0,0,0-11Z" style="fill: rgb(64, 123, 255); opacity: 0.3; transform-origin: 270.7px 339.5px;" class="animable"></path></g><path d="M291.19,335H219.07a4.51,4.51,0,0,0,0,9h72.12a4.51,4.51,0,1,0,0-9Z" style="fill: rgb(64, 123, 255); transform-origin: 255.43px 339.5px;" id="el1uw1f7byjwb" class="animable"></path></g><g id="freepik--Plant--inject-2" class="animable animator-active" style="transform-origin: 389.025px 351.481px;"><path d="M388.18,393.77s5.27-24.88-4.32-38.36,8.67-.16,10.77,12.46c0,0,3.14-22.56-6.16-38.44s8.1-2.84,9.58,13.52c0,0,2.85-20.13-1.42-31.44s3.16-4,6,3.05-.89,24.65-.89,24.65,7.46-32.46,14.52-29.88-10.56,23.85-13,34.92c0,0,8.32-14.89,14.64-11.79s-9.78,4.64-17.16,26.84l-2.58,10.41s7.66-14.69,12.67-10S396,372.29,391.38,394.57Z" style="fill: rgb(38, 50, 56); transform-origin: 400.217px 350.108px;" id="el2x0ti8u7m4x" class="animable"></path><path d="M389.22,395.21s1.1-31.38,16.61-44.67-10.34-2.77-16.61,11.72c0,0,2.95-28,18.82-44.2s-8.86-5.82-15.5,13.33c0,0,2.58-25,11.07-37.23s-2.58-5.78-8.12,1.86-6.27,29.79-6.27,29.79.73-41.11-8.49-40.12,5.53,31.72,5.16,45.7c0,0-5.53-20.31-14-18.48s10.33,8.47,12.55,37.26v13.24s-4.8-19.88-12.18-15.82,14,19.56,12.92,47.62Z" style="fill: rgb(38, 50, 56); transform-origin: 391.487px 340.441px;" id="el680ti36jilq" class="animable"></path><g id="eldou023xbevg"><path d="M389.22,395.21s1.1-31.38,16.61-44.67-10.34-2.77-16.61,11.72c0,0,2.95-28,18.82-44.2s-8.86-5.82-15.5,13.33c0,0,2.58-25,11.07-37.23s-2.58-5.78-8.12,1.86-6.27,29.79-6.27,29.79.73-41.11-8.49-40.12,5.53,31.72,5.16,45.7c0,0-5.53-20.31-14-18.48s10.33,8.47,12.55,37.26v13.24s-4.8-19.88-12.18-15.82,14,19.56,12.92,47.62Z" style="fill: rgb(255, 255, 255); opacity: 0.2; isolation: isolate; transform-origin: 391.487px 340.441px;" class="animable"></path></g><g id="el2ils41wnwwl"><path d="M375.68,401.37h23.59a11,11,0,0,1,11,11v4.92a0,0,0,0,1,0,0H364.68a0,0,0,0,1,0,0v-4.92A11,11,0,0,1,375.68,401.37Z" style="fill: rgb(64, 123, 255); transform-origin: 387.475px 409.33px; transform: rotate(180deg);" class="animable"></path></g><g id="eltss7n96482l"><rect x="358.71" y="392.18" width="57.52" height="14.25" rx="4.21" style="fill: rgb(64, 123, 255); transform-origin: 387.47px 399.305px; transform: rotate(180deg);" class="animable"></rect></g><g id="elb6rhn3gw0mv"><rect x="358.71" y="392.18" width="57.52" height="14.25" rx="4.21" style="fill: rgb(255, 255, 255); opacity: 0.2; isolation: isolate; transform-origin: 387.47px 399.305px; transform: rotate(180deg);" class="animable"></rect></g></g><g id="freepik--Fingerprint--inject-2" class="animable" style="transform-origin: 101.155px 135.915px;"><path d="M119.38,110.66H82.93a3.26,3.26,0,0,0-3.25,3.25v35.61a3.26,3.26,0,0,0,3.25,3.26h19.88l11.51,8.39-5.23-8.39h10.29a3.26,3.26,0,0,0,3.25-3.26V113.91A3.26,3.26,0,0,0,119.38,110.66Z" style="fill: rgb(64, 123, 255); transform-origin: 101.155px 135.915px;" id="elymgfv3zkim" class="animable"></path><path d="M96.44,144.48h0a.25.25,0,0,1-.23-.27c.34-3.64,2.29-6.57,3.72-8.71,1-1.44,1.71-2.57,1.56-3.25a.86.86,0,0,0-.44-.53,2.06,2.06,0,0,0-2,.1c-2.23,1.11-4.94,5-5.55,10.13a.25.25,0,0,1-.28.22.26.26,0,0,1-.22-.28c.64-5.27,3.48-9.35,5.83-10.52a2.47,2.47,0,0,1,2.42-.08,1.3,1.3,0,0,1,.67.84c.21.9-.56,2.05-1.62,3.65-1.4,2.09-3.31,5-3.64,8.47A.25.25,0,0,1,96.44,144.48Z" style="fill: rgb(255, 255, 255); transform-origin: 97.4768px 137.746px;" id="elh10y10u16t" class="animable"></path><path d="M97.73,145h0a.25.25,0,0,1-.23-.27c.25-3.43,2.21-6.23,3.79-8.48,1.23-1.75,2.29-3.27,2.06-4.43a2.32,2.32,0,0,0-1.14-1.42,3.52,3.52,0,0,0-3.54-.2c-2.83,1.29-5.48,5.81-6.16,10.49a.26.26,0,0,1-.28.22.26.26,0,0,1-.22-.29c.71-4.84,3.48-9.52,6.46-10.88a4,4,0,0,1,4,.24,2.76,2.76,0,0,1,1.36,1.74c.27,1.38-.79,2.89-2.14,4.82-1.55,2.2-3.47,4.93-3.7,8.23A.25.25,0,0,1,97.73,145Z" style="fill: rgb(255, 255, 255); transform-origin: 97.9401px 137.158px;" id="elppuml5dc289" class="animable"></path><path d="M95.43,143.92h0a.25.25,0,0,1-.23-.27c.28-3.42,2.11-6.42,3.2-8.21a7.65,7.65,0,0,0,.87-1.65h0c-1.1,0-4.07,4.39-4.67,9.11a.25.25,0,0,1-.28.22.25.25,0,0,1-.21-.28c.57-4.53,3.56-9.55,5.16-9.55h0a.48.48,0,0,1,.46.23c.21.38-.16,1-.88,2.18-1.14,1.86-2.86,4.69-3.13,8A.25.25,0,0,1,95.43,143.92Z" style="fill: rgb(255, 255, 255); transform-origin: 96.9482px 138.605px;" id="el4r6m0d1099q" class="animable"></path><path d="M99.47,145.42h0a.25.25,0,0,1-.23-.27c.15-2.82,1.83-5.51,3.32-7.88,2.19-3.49,3.92-6.25.92-8.53a4.35,4.35,0,0,0-4.39-.43c-3.51,1.35-6.71,5.8-7.61,10.58a.26.26,0,0,1-.3.2.25.25,0,0,1-.19-.29c.93-4.94,4.26-9.55,7.92-11a4.84,4.84,0,0,1,4.87.5c3.37,2.56,1.35,5.79-.8,9.2-1.52,2.43-3.1,4.94-3.24,7.64A.25.25,0,0,1,99.47,145.42Z" style="fill: rgb(255, 255, 255); transform-origin: 98.2807px 136.392px;" id="eloeqh49d4myr" class="animable"></path><path d="M102.1,145.5a.26.26,0,0,1-.24-.16c-.89-2.36.24-5.87,3.35-10.43,2.08-3.07,5.51-2.6,6.89-2.26a.25.25,0,0,1-.12.49c-1.28-.32-4.45-.76-6.36,2.05-3,4.35-4.11,7.8-3.29,10a.25.25,0,0,1-.14.33Z" style="fill: rgb(255, 255, 255); transform-origin: 106.929px 138.961px;" id="el2c3d1ld8ohh" class="animable"></path><path d="M104.45,145a.26.26,0,0,1-.21-.11c-2-2.84,0-7.43,3.11-9.93a4.23,4.23,0,0,1,4.8-.63.26.26,0,0,1,.11.34.26.26,0,0,1-.34.11,3.73,3.73,0,0,0-4.26.57c-2.87,2.31-4.81,6.68-3,9.26a.23.23,0,0,1-.06.34A.24.24,0,0,1,104.45,145Z" style="fill: rgb(255, 255, 255); transform-origin: 107.861px 139.427px;" id="el0qovrby7vehg" class="animable"></path><path d="M105.93,144.45a.26.26,0,0,1-.22-.13,5,5,0,0,1-.12-4.07,7.41,7.41,0,0,1,3.31-4.15,3.4,3.4,0,0,1,3,.25.25.25,0,0,1-.25.43,2.87,2.87,0,0,0-2.61-.22,7,7,0,0,0-3,3.85,4.57,4.57,0,0,0,.09,3.67.25.25,0,0,1-.1.34A.27.27,0,0,1,105.93,144.45Z" style="fill: rgb(255, 255, 255); transform-origin: 108.609px 140.157px;" id="elor4aaxhx4a" class="animable"></path><path d="M107.8,143.28a.25.25,0,0,1-.19-.09c-1-1.09-.68-3,.74-4.58a2.31,2.31,0,0,1,3.14-.61.25.25,0,0,1,.08.34.25.25,0,0,1-.34.09,1.83,1.83,0,0,0-2.51.52c-1.45,1.63-1.4,3.17-.74,3.91a.24.24,0,0,1,0,.35A.28.28,0,0,1,107.8,143.28Z" style="fill: rgb(255, 255, 255); transform-origin: 109.318px 140.456px;" id="els9of2dzf3h" class="animable"></path><path d="M109.13,142.06a.24.24,0,0,1-.22-.14,1.58,1.58,0,0,1,1.71-2.27.26.26,0,0,1,.18.31.25.25,0,0,1-.31.17,1,1,0,0,0-.92.3,1,1,0,0,0-.21,1.27.26.26,0,0,1-.12.34A.22.22,0,0,1,109.13,142.06Z" style="fill: rgb(255, 255, 255); transform-origin: 109.772px 140.841px;" id="ell3qo4dhsaj" class="animable"></path><path d="M90.37,136.17a.27.27,0,0,1-.25-.28h0a13.61,13.61,0,0,1,5.1-7.68,26.88,26.88,0,0,1,4.92-2.91,9.84,9.84,0,0,0,3.29-2.15,4.43,4.43,0,0,0,.68-4.86.25.25,0,0,1,.13-.33.24.24,0,0,1,.33.12,4.92,4.92,0,0,1-.77,5.4,10.16,10.16,0,0,1-3.45,2.27,27.38,27.38,0,0,0-4.83,2.86,13.14,13.14,0,0,0-4.9,7.34A.22.22,0,0,1,90.37,136.17Z" style="fill: rgb(255, 255, 255); transform-origin: 97.5854px 127.053px;" id="elp71kfovtyqa" class="animable"></path><path d="M90.27,131.71l-.11,0a.25.25,0,0,1-.11-.34c1.49-3,4.6-4.7,7.34-6.21,2.57-1.42,4.79-2.65,5.19-4.55a2.85,2.85,0,0,0-.74-2.67.25.25,0,0,1,0-.36.25.25,0,0,1,.35,0,3.35,3.35,0,0,1,.87,3.12c-.44,2.13-2.76,3.41-5.44,4.89s-5.71,3.15-7.14,6A.24.24,0,0,1,90.27,131.71Z" style="fill: rgb(255, 255, 255); transform-origin: 96.5858px 124.609px;" id="elw6qlpo759fq" class="animable"></path><path d="M90.27,129.25a.28.28,0,0,1-.13,0,.25.25,0,0,1-.08-.35c1.25-2,3.48-3.34,5.65-4.66s4.37-2.65,4.65-4.37a1.62,1.62,0,0,0-1-1.77.26.26,0,0,1-.1-.34.25.25,0,0,1,.34-.1,2.13,2.13,0,0,1,1.28,2.29c-.32,2-2.54,3.29-4.89,4.72-2.12,1.28-4.3,2.61-5.49,4.5A.25.25,0,0,1,90.27,129.25Z" style="fill: rgb(255, 255, 255); transform-origin: 95.4624px 123.443px;" id="ellkwf6g8clyi" class="animable"></path><path d="M90.44,126.92a.27.27,0,0,1-.16-.06.25.25,0,0,1,0-.35,17.85,17.85,0,0,1,4.1-3.3c1.78-1.16,3.31-2.16,3.43-3.37a1.12,1.12,0,0,0-.65-1.19.24.24,0,0,1-.1-.33.25.25,0,0,1,.34-.11,1.61,1.61,0,0,1,.91,1.68c-.14,1.44-1.77,2.51-3.66,3.74a17.71,17.71,0,0,0-4,3.2A.23.23,0,0,1,90.44,126.92Z" style="fill: rgb(255, 255, 255); transform-origin: 94.267px 122.551px;" id="elgs0ox50nr39" class="animable"></path><path d="M91.63,123.57a.25.25,0,0,1-.19-.09.26.26,0,0,1,0-.36,12.41,12.41,0,0,1,2.23-1.4c.74-.39,1.37-.72,1.41-1.06a1,1,0,0,0-.28-.88.25.25,0,1,1,.37-.34,1.55,1.55,0,0,1,.41,1.28c-.08.6-.78,1-1.67,1.44a11.68,11.68,0,0,0-2.15,1.35A.23.23,0,0,1,91.63,123.57Z" style="fill: rgb(255, 255, 255); transform-origin: 93.4812px 121.464px;" id="el6fxjkob3y7p" class="animable"></path><path d="M111.83,131.57c-3.23,0-5.75-1.31-6.75-3.52s0-3.7,1-5.53a4.85,4.85,0,0,0,.56-3.13.27.27,0,0,1,.25-.27.23.23,0,0,1,.24.23h0a5.16,5.16,0,0,1-.62,3.41c-1.07,1.85-1.85,3.18-1,5.07.94,2.08,3.38,3.28,6.49,3.23a.25.25,0,0,1,.26.24.26.26,0,0,1-.25.26Z" style="fill: rgb(255, 255, 255); transform-origin: 108.463px 125.345px;" id="elryphgehpm2n" class="animable"></path><path d="M111.38,129.67a4.21,4.21,0,0,1-3.93-2,3.22,3.22,0,0,1,.21-3.47,6,6,0,0,0,1.26-3,.25.25,0,0,1,.28-.22.25.25,0,0,1,.22.27,6.56,6.56,0,0,1-1.36,3.27,2.7,2.7,0,0,0-.17,2.92c.68,1.25,2.19,1.87,4.13,1.69a.26.26,0,0,1,.27.23.25.25,0,0,1-.23.27Z" style="fill: rgb(255, 255, 255); transform-origin: 109.666px 125.331px;" id="elrdgfpa9lozk" class="animable"></path><path d="M111.19,128.11a2.35,2.35,0,0,1-1.64-.57,2.38,2.38,0,0,1-.69-2,4.61,4.61,0,0,1,1.29-2.14l.27-.31a.25.25,0,1,1,.38.32l-.27.32a4.29,4.29,0,0,0-1.17,1.86,1.85,1.85,0,0,0,.53,1.62,2.31,2.31,0,0,0,2.06.35.26.26,0,0,1,.3.2.25.25,0,0,1-.2.29A4,4,0,0,1,111.19,128.11Z" style="fill: rgb(255, 255, 255); transform-origin: 110.547px 125.546px;" id="el6zqfepyrxtf" class="animable"></path><path d="M111.78,126.47h-.08a.79.79,0,0,1-.5-.44,1.09,1.09,0,0,1,.08-.9.25.25,0,0,1,.46.21.65.65,0,0,0-.08.5s0,.1.2.15a.25.25,0,0,1-.08.49Z" style="fill: rgb(255, 255, 255); transform-origin: 111.589px 125.732px;" id="el6hwfo7inhbe" class="animable"></path><path d="M102,126.3a6.51,6.51,0,0,0,1.63-1,4.68,4.68,0,0,0,.09,1.72A3,3,0,0,0,102,126.3Z" style="fill: rgb(255, 255, 255); transform-origin: 102.86px 126.16px;" id="ele1heryuvnhw" class="animable"></path><path d="M106.37,131a2.34,2.34,0,0,1-.14,1.38,6.86,6.86,0,0,1,1.55-.69A4.25,4.25,0,0,1,106.37,131Z" style="fill: rgb(255, 255, 255); transform-origin: 107.005px 131.69px;" id="elwnh2r4xncab" class="animable"></path></g><g id="freepik--Character--inject-2" class="animable" style="transform-origin: 138.836px 286.994px;"><path d="M119.26,204.87c-1.09,3.91,4.18,18.5,13.28,18.37S120.76,199.54,119.26,204.87Z" style="fill: rgb(235, 179, 118); transform-origin: 126.973px 213.663px;" id="el909aqixs2ad" class="animable"></path><g id="elxxr4xwyck8"><path d="M119.26,204.87c-1.09,3.91,4.18,18.5,13.28,18.37S120.76,199.54,119.26,204.87Z" style="opacity: 0.2; isolation: isolate; transform-origin: 126.973px 213.663px;" class="animable"></path></g><path d="M150.42,194.58a23.59,23.59,0,0,0,3.23-3.05c.59-.92,6.39-1.29,7.23-1.16s-.31,4.88-.51,5.52-5.73,1.84-6.47,1.62S150.42,194.58,150.42,194.58Z" style="fill: rgb(235, 179, 118); transform-origin: 155.802px 193.941px;" id="eldon4o715qxb" class="animable"></path><g id="elimkmt82uu9s"><path d="M150.42,194.58a23.59,23.59,0,0,0,3.23-3.05c.59-.92,6.39-1.29,7.23-1.16s-.31,4.88-.51,5.52-5.73,1.84-6.47,1.62S150.42,194.58,150.42,194.58Z" style="opacity: 0.2; isolation: isolate; transform-origin: 155.802px 193.941px;" class="animable"></path></g><path d="M171.69,199.51a8.46,8.46,0,0,0,1.23-1.44c.15-.39,0-8.16-.62-8.45s-5.85.64-6.3,1.38.54,7.81.59,8.21,2.84,1.09,2.84,1.09Z" style="fill: rgb(235, 179, 118); transform-origin: 169.428px 194.933px;" id="eltrlun2q23ul" class="animable"></path><path d="M172.12,183.89l-.65,0-4.61-.41-.64-.06a1.11,1.11,0,0,0-1.15.88L162.81,196a.87.87,0,0,0,.78,1l.65.06,4.61.4.64.06a1.1,1.1,0,0,0,1.15-.88l2.26-11.77A.87.87,0,0,0,172.12,183.89Z" style="fill: rgb(38, 50, 56); transform-origin: 167.854px 190.47px;" id="elqfywaz5av0i" class="animable"></path><g id="elgkkw9byt9p9"><path d="M171.47,183.84l-5.25-.47a1.11,1.11,0,0,0-1.15.88L162.81,196a.87.87,0,0,0,.78,1l5.26.46a1.09,1.09,0,0,0,1.15-.88l2.25-11.77A.84.84,0,0,0,171.47,183.84Z" style="fill: rgb(255, 255, 255); opacity: 0.2; isolation: isolate; transform-origin: 167.53px 190.416px;" class="animable"></path></g><polygon points="169.46 196.47 163.22 195.92 165.45 184.27 171.69 184.82 169.46 196.47" style="fill: rgb(64, 123, 255); transform-origin: 167.455px 190.37px;" id="elg5e7scoctot" class="animable"></polygon><g id="el4cpha8p6t58"><polygon points="169.46 196.47 163.22 195.92 165.45 184.27 171.69 184.82 169.46 196.47" style="fill: rgb(255, 255, 255); opacity: 0.6; isolation: isolate; transform-origin: 167.455px 190.37px;" class="animable"></polygon></g><path d="M146,398.85l5.06.08c5.14-24.15,8.78-54,11-76.57.35-3.53.68-6.87,1-10,.13-1.49.26-2.91.38-4.28.61-6.78,1-12.15,1.28-15.47.18-2.43.27-3.76.27-3.76H146.72l.17,4.65.57,15.37.06,1.76.38,10.15.64,17.28C142.27,362.39,146,398.85,146,398.85Z" style="fill: rgb(235, 179, 118); transform-origin: 154.944px 343.89px;" id="eltc7atu8zp4" class="animable"></path><path d="M105,397.56l5,.94c10-24.92,19.33-56.82,25.42-79.1.94-3.46,1.81-6.69,2.59-9.62,0-.15.07-.29.11-.43,1.53-5.82,2.71-10.45,3.45-13.39.57-2.3.88-3.57.88-3.57l-18-3.11-1,7.58L121.9,308l-.29,2.19-1,7.58-2.74,20.34C107.53,361,105,397.56,105,397.56Z" style="fill: rgb(235, 179, 118); transform-origin: 123.725px 343.89px;" id="elcca8qrbb4ke" class="animable"></path><g id="elju4xa5pwnd8"><path d="M121.9,308l16.1,1.8c0-.15.07-.29.11-.43,1.53-5.82,2.71-10.45,3.45-13.39l-18.16.9Z" style="opacity: 0.2; isolation: isolate; transform-origin: 131.73px 302.89px;" class="animable"></path></g><g id="elh5xbrjt30o"><path d="M146.89,293.51l.57,15.37.06,1.76,15.55,1.73c.13-1.49.26-2.91.38-4.28.61-6.78,1-12.15,1.28-15.47Z" style="opacity: 0.2; isolation: isolate; transform-origin: 155.81px 302.495px;" class="animable"></path></g><path d="M161,415.63a10,10,0,0,0-3.17-1.72h0s-3.44-3.42-5.1-13.7l-4.5-1.18a3.85,3.85,0,0,0-4.11,1.61,2.13,2.13,0,0,0-.28.59,26.86,26.86,0,0,0-.48,3.34,91.82,91.82,0,0,0-.07,11.29h.82l.32-7.09c.12-2.4,2,.42,2.49,3s1.65,5.35,6.92,5.48C160,417.38,162.51,417.14,161,415.63Z" style="fill: rgb(38, 50, 56); transform-origin: 152.289px 408.101px;" id="el4xacwu905c7" class="animable"></path><path d="M143.92,400.72c-.3-2.41-.39-6.59-.39-6.59l10,1.11s-1.21,4.76-.21,8.33C148.29,402.25,143.92,400.72,143.92,400.72Z" style="fill: rgb(38, 50, 56); transform-origin: 148.53px 398.85px;" id="elui174lssonl" class="animable"></path><path d="M120.19,415.63a10,10,0,0,0-3.16-1.72h0s-3.44-3.42-5.1-13.7L107.42,399a3.83,3.83,0,0,0-4.1,1.61,2.16,2.16,0,0,0-.29.59,26.86,26.86,0,0,0-.48,3.34,93.29,93.29,0,0,0-.06,11.29h.81l.33-7.09c.12-2.4,2,.42,2.49,3s1.64,5.35,6.92,5.48C119.19,417.38,121.75,417.14,120.19,415.63Z" style="fill: rgb(38, 50, 56); transform-origin: 111.492px 408.077px;" id="el5ksc2gi2xbn" class="animable"></path><path d="M103.16,400.72c-.29-2.41-.39-6.59-.39-6.59l10,1.11s-1.21,4.76-.21,8.33C107.53,402.25,103.16,400.72,103.16,400.72Z" style="fill: rgb(38, 50, 56); transform-origin: 107.77px 398.85px;" id="el4nlik0id86m" class="animable"></path><path d="M155.52,180.75c-.14.58-.5,1-.8.91s-.43-.6-.29-1.18.51-1,.81-.92S155.67,180.17,155.52,180.75Z" style="fill: rgb(38, 50, 56); transform-origin: 154.978px 180.611px;" id="elr4odsicdis" class="animable"></path><path d="M155.11,179.56l1.1-.26S155.46,180.25,155.11,179.56Z" style="fill: rgb(38, 50, 56); transform-origin: 155.66px 179.556px;" id="elixdxom1yjgc" class="animable"></path><path d="M153.78,181.89a15.69,15.69,0,0,0,.89,3.59,2,2,0,0,1-2.09.08Z" style="fill: rgb(213, 135, 69); transform-origin: 153.625px 183.853px;" id="el5lhmlkyaum" class="animable"></path><path d="M136.55,186.45a1.37,1.37,0,0,0,.18.24,10.9,10.9,0,0,0,3.05,3c3.57,2.21,6.39,2.58,8.72,1.42h0c3.31-1.8,5.5-6.26,7.07-12a22.41,22.41,0,0,0,1-7s0-.08,0-.1,0-.19,0-.27a8.11,8.11,0,0,0-4-6.6,17.06,17.06,0,0,0-3.2-1.51C138.44,159.86,130.29,177.33,136.55,186.45Z" style="fill: rgb(235, 179, 118); transform-origin: 145.473px 177.429px;" id="elwpgq6vprm3" class="animable"></path><g id="el3pbc8iuak1l"><path d="M136.73,186.69a10.63,10.63,0,0,0,3.1,2.89c3.57,2.21,6.44,2.45,8.77,1.26a11.49,11.49,0,0,1-6.75-2.93A6,6,0,0,0,136.73,186.69Z" style="opacity: 0.2; isolation: isolate; transform-origin: 142.665px 189.047px;" class="animable"></path></g><path d="M132.25,196.21c-1.74,2.89,1.87,5.53,1.87,5.53,7.56-.57,10-3.67,10-3.67-4.54-4.75-.17-12.34-.17-12.34l-1.31.17-8.4-1.13s.76,4.93.72,6c0,0,0,0,0,0C134.73,196.28,132.25,196.21,132.25,196.21Z" style="fill: rgb(235, 179, 118); transform-origin: 137.948px 193.255px;" id="el93rh8niyn7" class="animable"></path><path d="M156.62,172.11s-2,7.89-10.42,8.71c0,0-5.84,6.92-10.48,5.46-6.33-2-8.82-12.79-3.55-21.14C139,154.31,157.19,159.43,156.62,172.11Z" style="fill: rgb(38, 50, 56); transform-origin: 142.971px 172.862px;" id="ellsmaney7i5" class="animable"></path><path d="M150.64,179.87c.4-1.2.13-3.54-1.83-3.9s-4.71,4-.33,6.69C149.1,183,149.79,182.37,150.64,179.87Z" style="fill: rgb(235, 179, 118); transform-origin: 148.469px 179.347px;" id="el423rx5dqkc" class="animable"></path><path d="M146,159.39s8,.65,11,5c3.56,5,4.15,9.22-3.34,12.84,0,0-10.94-8.18-15.32-8.72a46.35,46.35,0,0,0-7.71-.35C132.56,159.71,142.49,156.34,146,159.39Z" style="fill: rgb(38, 50, 56); transform-origin: 145.085px 167.757px;" id="el3pfsz24f2q6" class="animable"></path><path d="M137.66,163.83s-4.6-8.57-11.58-6.91-7.89,7.62-7.51,13.47S117.8,187,113.2,189c0,0,4.32,2.87,8.94-2.11s5.4-21.55,13.07-18.73Z" style="fill: rgb(38, 50, 56); transform-origin: 125.43px 173.265px;" id="elgwvk4088elu" class="animable"></path><path d="M156.09,177.45a.31.31,0,0,1-.23-.08,3.07,3.07,0,0,0-2.51-.82.38.38,0,0,1-.44-.27.37.37,0,0,1,.26-.44,3.78,3.78,0,0,1,3.15,1,.37.37,0,0,1,.05.51A.37.37,0,0,1,156.09,177.45Z" style="fill: rgb(38, 50, 56); transform-origin: 154.675px 176.626px;" id="elljd7r63bpz" class="animable"></path><path d="M161.07,242.18l-29.9,2.9c-1.39-21.36-11.91-40.21-11.91-40.21s-1.41-4.85,12.52-8.65,23.17-.68,23.17-.68c3,4,4.65,10.08,5.59,16.53.37,2.49.63,5,.8,7.53A156.9,156.9,0,0,1,161.07,242.18Z" style="fill: rgb(64, 123, 255); transform-origin: 140.422px 219.707px;" id="elbnddzkbwcef" class="animable"></path><path d="M162.22,244.11h0l-.59-5.89L130,241.4l.66,4.62h0c-11.92,21.1-9,45.17-9,45.17L120.16,303s3,1.85,23.05,3.16c17.63,1.15,22.11-.68,22.11-.68C171.56,268.89,166.2,251.45,162.22,244.11Z" style="fill: rgb(38, 50, 56); transform-origin: 144.167px 272.38px;" id="el7wp04wym8ft" class="animable"></path><polygon points="148.53 244.52 162.77 243.39 162.58 239.08 148.22 240.58 148.53 244.52" style="fill: rgb(38, 50, 56); transform-origin: 155.495px 241.8px;" id="elpzu73tvkemh" class="animable"></polygon><polygon points="134.28 245.65 147.5 244.6 147.19 240.69 133.99 242.07 134.28 245.65" style="fill: rgb(38, 50, 56); transform-origin: 140.745px 243.17px;" id="el9rlmarb9u7c" class="animable"></polygon><polygon points="132.96 242.18 129.6 242.53 130.03 245.98 133.25 245.73 132.96 242.18" style="fill: rgb(38, 50, 56); transform-origin: 131.425px 244.08px;" id="ela5kppp4dmhg" class="animable"></polygon><g id="el5lyqunkfeo"><g style="opacity: 0.3; isolation: isolate; transform-origin: 146.185px 242.53px;" class="animable"><polygon points="148.53 244.52 162.77 243.39 162.58 239.08 148.22 240.58 148.53 244.52" style="fill: rgb(255, 255, 255); transform-origin: 155.495px 241.8px;" id="eld586ywuuxkj" class="animable"></polygon><polygon points="134.28 245.65 147.5 244.6 147.19 240.69 133.99 242.07 134.28 245.65" style="fill: rgb(255, 255, 255); transform-origin: 140.745px 243.17px;" id="elkdi7633l038" class="animable"></polygon><polygon points="132.96 242.18 129.6 242.53 130.03 245.98 133.25 245.73 132.96 242.18" style="fill: rgb(255, 255, 255); transform-origin: 131.425px 244.08px;" id="el2wcybck2xcu" class="animable"></polygon></g></g><path d="M155,195.54s-5.47-.52-5,6.2c.25,3.73,3.31,11.08,6.68,11.74,2,.39,2.93-2.79,2.93-2.79s9.32,10.37,14,9-1.71-21.13-1.71-21.13l-3.66.4s2.6,10.28,1.81,11.07S157.49,196.14,155,195.54Z" style="fill: rgb(235, 179, 118); transform-origin: 162.647px 207.673px;" id="el1v11vvyguuf" class="animable"></path><g id="elyrsmdcsu44d"><path d="M161.34,219.6c-3.67-2.65-6.67-12.71-6.67-12.71l4.89,3.8s.41.55,1,1.38C160.91,214.56,161.17,217.1,161.34,219.6Z" style="opacity: 0.2; isolation: isolate; transform-origin: 158.005px 213.245px;" class="animable"></path></g></g><defs>     <filter id="active" height="200%">         <feMorphology in="SourceAlpha" result="DILATED" operator="dilate" radius="2"></feMorphology>                <feFlood flood-color="#32DFEC" flood-opacity="1" result="PINK"></feFlood>        <feComposite in="PINK" in2="DILATED" operator="in" result="OUTLINE"></feComposite>        <feMerge>            <feMergeNode in="OUTLINE"></feMergeNode>            <feMergeNode in="SourceGraphic"></feMergeNode>        </feMerge>    </filter>    <filter id="hover" height="200%">        <feMorphology in="SourceAlpha" result="DILATED" operator="dilate" radius="2"></feMorphology>                <feFlood flood-color="#ff0000" flood-opacity="0.5" result="PINK"></feFlood>        <feComposite in="PINK" in2="DILATED" operator="in" result="OUTLINE"></feComposite>        <feMerge>            <feMergeNode in="OUTLINE"></feMergeNode>            <feMergeNode in="SourceGraphic"></feMergeNode>        </feMerge>            <feColorMatrix type="matrix" values="0   0   0   0   0                0   1   0   0   0                0   0   0   0   0                0   0   0   1   0 "></feColorMatrix>    </filter></defs></svg>